<svg class="main-svg" xmlns="http://www.w3.org/2000/svg" xmlns:xlink="http://www.w3.org/1999/xlink" width="700" height="500" style="" viewBox="0 0 700 500"><rect x="0" y="0" width="700" height="500" style="fill: rgb(255, 255, 255); fill-opacity: 1;"/><defs id="defs-a7c590"><g class="clips"><clipPath id="clipa7c590xyplot" class="plotclip"><rect width="571" height="374"/></clipPath><clipPath class="axesclip" id="clipa7c590x"><rect x="79" y="0" width="571" height="500"/></clipPath><clipPath class="axesclip" id="clipa7c590y"><rect x="0" y="60" width="700" height="374"/></clipPath><clipPath class="axesclip" id="clipa7c590xy"><rect x="79" y="60" width="571" height="374"/></clipPath></g><g class="gradients"/></defs><g class="bglayer"/><g class="layer-below"><g class="imagelayer"/><g class="shapelayer"/></g><g class="cartesianlayer"><g class="subplot xy"><g class="layer-subplot"><g class="shapelayer"/><g class="imagelayer"/></g><g class="gridlayer"><g class="x"/><g class="y"/></g><g class="zerolinelayer"><path class="xzl zl crisp" transform="translate(79,0)" d="M0,60v374" style="stroke: rgb(255, 255, 255); stroke-opacity: 1; stroke-width: 2px;"/></g><path class="xlines-below crisp" d="M77,435H652M77,59H652" style="fill: none; stroke-width: 2px; stroke: rgb(0, 0, 0); stroke-opacity: 1;"/><path class="ylines-below crisp" d="M78,60V434M651,60V434" style="fill: none; stroke-width: 2px; stroke: rgb(0, 0, 0); stroke-opacity: 1;"/><g class="overlines-below"/><g class="xaxislayer-below"><path class="xtick ticks crisp" d="M0,436v5" transform="translate(79,0)" style="stroke: rgb(68, 68, 68); stroke-opacity: 1; stroke-width: 1px;"/><path class="xtick ticks crisp" d="M0,436v5" transform="translate(182.76,0)" style="stroke: rgb(68, 68, 68); stroke-opacity: 1; stroke-width: 1px;"/><path class="xtick ticks crisp" d="M0,436v5" transform="translate(286.51,0)" style="stroke: rgb(68, 68, 68); stroke-opacity: 1; stroke-width: 1px;"/><path class="xtick ticks crisp" d="M0,436v5" transform="translate(390.27,0)" style="stroke: rgb(68, 68, 68); stroke-opacity: 1; stroke-width: 1px;"/><path class="xtick ticks crisp" d="M0,436v5" transform="translate(494.02,0)" style="stroke: rgb(68, 68, 68); stroke-opacity: 1; stroke-width: 1px;"/><path class="xtick ticks crisp" d="M0,436v5" transform="translate(597.78,0)" style="stroke: rgb(68, 68, 68); stroke-opacity: 1; stroke-width: 1px;"/><g class="xtick"><text text-anchor="middle" x="0" y="457.8" transform="translate(79,0)" style="font-family: Arial; font-size: 14px; fill: rgb(0, 0, 0); fill-opacity: 1; white-space: pre;">0</text></g><g class="xtick"><text text-anchor="middle" x="0" y="457.8" transform="translate(182.76,0)" style="font-family: Arial; font-size: 14px; fill: rgb(0, 0, 0); fill-opacity: 1; white-space: pre;">1</text></g><g class="xtick"><text text-anchor="middle" x="0" y="457.8" transform="translate(286.51,0)" style="font-family: Arial; font-size: 14px; fill: rgb(0, 0, 0); fill-opacity: 1; white-space: pre;">2</text></g><g class="xtick"><text text-anchor="middle" x="0" y="457.8" transform="translate(390.27,0)" style="font-family: Arial; font-size: 14px; fill: rgb(0, 0, 0); fill-opacity: 1; white-space: pre;">3</text></g><g class="xtick"><text text-anchor="middle" x="0" y="457.8" transform="translate(494.02,0)" style="font-family: Arial; font-size: 14px; fill: rgb(0, 0, 0); fill-opacity: 1; white-space: pre;">4</text></g><g class="xtick"><text text-anchor="middle" x="0" y="457.8" transform="translate(597.78,0)" style="font-family: Arial; font-size: 14px; fill: rgb(0, 0, 0); fill-opacity: 1; white-space: pre;">5</text></g></g><g class="yaxislayer-below"><path class="ytick ticks crisp" d="M77,0h-5" transform="translate(0,372.54)" style="stroke: rgb(68, 68, 68); stroke-opacity: 1; stroke-width: 1px;"/><path class="ytick ticks crisp" d="M77,0h-5" transform="translate(0,308.13)" style="stroke: rgb(68, 68, 68); stroke-opacity: 1; stroke-width: 1px;"/><path class="ytick ticks crisp" d="M77,0h-5" transform="translate(0,243.71)" style="stroke: rgb(68, 68, 68); stroke-opacity: 1; stroke-width: 1px;"/><path class="ytick ticks crisp" d="M77,0h-5" transform="translate(0,179.3)" style="stroke: rgb(68, 68, 68); stroke-opacity: 1; stroke-width: 1px;"/><path class="ytick ticks crisp" d="M77,0h-5" transform="translate(0,114.89)" style="stroke: rgb(68, 68, 68); stroke-opacity: 1; stroke-width: 1px;"/><g class="ytick"><text text-anchor="end" x="69.2" y="4.8999999999999995" transform="translate(0,372.54)" style="font-family: Arial; font-size: 14px; fill: rgb(0, 0, 0); fill-opacity: 1; white-space: pre;">−16</text></g><g class="ytick"><text text-anchor="end" x="69.2" y="4.8999999999999995" transform="translate(0,308.13)" style="font-family: Arial; font-size: 14px; fill: rgb(0, 0, 0); fill-opacity: 1; white-space: pre;">−14</text></g><g class="ytick"><text text-anchor="end" x="69.2" y="4.8999999999999995" transform="translate(0,243.71)" style="font-family: Arial; font-size: 14px; fill: rgb(0, 0, 0); fill-opacity: 1; white-space: pre;">−12</text></g><g class="ytick"><text text-anchor="end" x="69.2" y="4.8999999999999995" transform="translate(0,179.3)" style="font-family: Arial; font-size: 14px; fill: rgb(0, 0, 0); fill-opacity: 1; white-space: pre;">−10</text></g><g class="ytick"><text text-anchor="end" x="69.2" y="4.8999999999999995" transform="translate(0,114.89)" style="font-family: Arial; font-size: 14px; fill: rgb(0, 0, 0); fill-opacity: 1; white-space: pre;">−8</text></g></g><g class="overaxes-below"/><g class="plot" transform="translate(79,60)" clip-path="url('#clipa7c590xyplot')"><g class="scatterlayer mlayer"><g class="trace scatter tracecf7f1f" style="stroke-miterlimit: 2; opacity: 1;"><g class="fills"/><g class="errorbars"/><g class="lines"><path class="js-line" d="M0,374L0,353.45L4.39,351.87L12.01,350.3L15.68,348.72L21.99,345.56L24.92,343.98L39.12,332.94L40.64,331.36L64.82,307.65L66.62,306.08L72.39,301.34L75.49,299.76L85.25,295.03L95.84,293.42L88.21,287.11L86.46,285.53L82.92,282.37L81.18,280.79L63.5,265.01L72.78,263.4L81.49,257.09L83.05,255.51L83.79,253.93L85.83,252.35L85.94,249.2L83.88,247.62L82.05,246.04L81.48,244.46L81.74,241.31L82.39,239.73L85.79,234.99L87.48,233.42L95.52,227.07L97.88,225.49L107.08,220.76L110.5,219.18L114.65,217.6L126.79,216.02L131.56,214.45L155.95,212.87L140.28,211.29L139.86,209.71L141.63,208.13L145.78,206.56L142.98,204.98L142.56,203.4L142.46,200.21L144.64,198.63L144.95,195.48L142.87,193.9L141.32,192.32L141.21,190.74L145.47,189.16L143.91,187.59L139.24,186.01L149.93,184.43L137.27,182.85L132.39,181.27L136.02,179.7L125.96,178.12L125.34,176.54L117.56,174.96L111.95,171.8L105.73,170.19L114.24,163.88L111.54,162.3L106.45,160.73L106.66,159.15L108.22,155.99L120.05,154.41L117.56,152.83L132.81,151.26L130.42,149.68L134.26,148.1L136.02,146.52L144.22,144.94L144.84,143.37L150.03,141.79L162.07,138.6L155.63,137.02L152.42,135.44L159.68,133.86L154.39,132.29L161.44,130.71L162.59,129.13L176.59,127.55L182.51,124.4L191.22,122.82L194.02,121.24L194.85,119.66L191.33,118.08L202.01,116.51L205.02,113.35L201.18,111.77L201.39,110.16L207.51,108.58L212.7,107L214.57,105.43L218.3,102.27L223.59,100.69L246.42,95.96L245.38,94.38L256.48,92.8L280.56,91.22L312.31,89.64L316.25,88.07L283.56,86.49L231.79,84.91L251.71,83.33L281.39,81.75L337.1,80.18L287.61,78.57L211.25,73.83L196.93,72.25L162.38,67.52L155.01,65.94L145.15,62.78L141.73,61.21L138.72,59.63L133.43,58.05L129.9,56.47L130.42,54.89L132.7,51.74L140.07,50.16L147.96,48.55L146.81,46.97L144.74,45.39L144.43,43.81L142.87,40.66L142.25,39.08L136.13,34.35L135.51,32.77L135.92,29.61L131.46,28.03L148.06,24.88L146.4,23.3L127.83,21.72L122.02,20.14L126.79,18.56L137.06,16.95L149.62,15.38L170.26,13.8L177.22,12.22L191.95,10.64L234.49,7.48L271.32,5.91L395.1,2.75L340.22,1.17L269.04,-1.98L246.84,-3.56L177.94,-8.3L182.61,-9.87L222.25,-11.45L223.49,-13.06L342.6,-16.22L364.7,-17.8L255.14,-20.95L242.89,-22.53L278.58,-25.69L308.36,-27.27L431.83,-30.42L519.09,-32L448.85,-33.58L459.85,-35.16L413.36,-36.74L450.51,-38.31L376.53,-39.89L381.82,-41.47L420.21,-47.81L327.56,-49.39L313.55,-50.97L285.12,-52.55L277.65,-54.13L252.02,-55.71L161.86,-62.02L144.84,-63.6L44.25,-71.49L42.97,-73.06L4.36,-76.25L1.5,-77.83L0,-82.57L0,-84.14L0,-99.93" style="vector-effect: non-scaling-stroke; fill: none; stroke: rgb(0, 0, 0); stroke-opacity: 1; stroke-width: 2px; opacity: 1;"/></g><g class="points"/><g class="text"/></g><g class="trace scatter trace506335" style="stroke-miterlimit: 2; opacity: 1;"><g class="fills"/><g class="errorbars"/><g class="lines"><path class="js-line" d="M0,32.21L571,32.21" style="vector-effect: non-scaling-stroke; fill: none; stroke: rgb(0, 0, 0); stroke-opacity: 1; stroke-width: 2px; opacity: 1; stroke-dasharray: 9px, 9px;"/></g><g class="points"/><g class="text"/></g><g class="trace scatter trace4fa37e" style="stroke-miterlimit: 2;"><g class="fills"><g><path class="js-fill" d="M0,-99.93L0,374L0,374L0.7,298.18L0.77,296.61L3.38,258.67L3.54,257.09L3.8,247.62L3.56,246.04L3.36,233.42L3.41,231.81L4.73,216.02L4.93,214.45L8.84,200.21L9.46,198.63L13.7,186.01L16.05,184.43L14.21,182.85L13.75,181.27L14.51,179.7L13.13,178.12L12.59,173.38L12.25,171.8L12,168.62L12.33,167.04L13.1,163.88L12.91,162.3L12.5,159.15L12.64,157.57L12.84,155.99L14.24,154.41L13.44,152.83L14.56,151.26L14.72,148.1L15.1,146.52L17.05,141.79L17.69,140.18L18.99,137.02L19.07,135.44L24.6,122.82L25.85,121.24L31.15,113.35L31.51,111.77L32.6,110.16L34.58,108.58L39.9,103.85L41.52,102.27L48.83,97.54L52.42,95.96L52.91,94.38L56.28,92.8L79.05,88.07L75.14,86.49L62.44,84.91L72.42,83.33L85.46,81.75L109.25,80.18L90.35,78.57L82.16,76.99L67.4,73.83L63.69,72.25L54.05,67.52L52.08,65.94L49.95,62.78L49.56,61.21L49.25,59.63L47.79,58.05L46.93,56.47L47.92,54.89L50.19,51.74L54.41,50.16L58.68,48.55L58.25,46.97L57.39,43.81L56.88,42.24L56.64,39.08L55.83,37.5L52.32,31.19L50.5,29.61L47.26,28.03L49.77,26.45L51.26,24.88L48.85,23.3L40.86,21.72L38.7,20.14L40.25,18.56L43.57,16.95L48.56,15.38L57.4,13.8L61.1,12.22L67.62,10.64L98.46,5.91L119.32,4.33L134.88,2.75L119.94,1.17L85.45,-5.14L75.49,-6.72L62.24,-8.3L66.02,-9.87L87.24,-13.06L119.73,-14.64L158.54,-17.8L136.96,-19.38L120.25,-20.95L118.7,-22.53L141.32,-25.69L159.27,-27.27L231.69,-30.42L282.63,-32L247.25,-33.58L260.32,-35.16L249.33,-36.74L286.37,-38.31L236.77,-39.89L243,-41.47L275.78,-47.81L186.35,-49.39L76.9,-58.86L66.39,-60.44L22.28,-71.49L21.7,-73.06L1.84,-76.25L0.59,-77.83L0,-85.72L0,-87.3L0,-99.93" style="fill: rgb(255, 0, 0); fill-opacity: 0.5; stroke-width: 0;"/></g></g><g class="errorbars"/><g class="lines"><path class="js-line" d="M0,374L0.7,298.18L0.77,296.61L3.38,258.67L3.54,257.09L3.8,247.62L3.56,246.04L3.36,233.42L3.41,231.81L4.73,216.02L4.93,214.45L8.84,200.21L9.46,198.63L13.7,186.01L16.05,184.43L14.21,182.85L13.75,181.27L14.51,179.7L13.13,178.12L12.59,173.38L12.25,171.8L12,168.62L12.33,167.04L13.1,163.88L12.91,162.3L12.5,159.15L12.64,157.57L12.84,155.99L14.24,154.41L13.44,152.83L14.56,151.26L14.72,148.1L15.1,146.52L17.05,141.79L17.69,140.18L18.99,137.02L19.07,135.44L24.6,122.82L25.85,121.24L31.15,113.35L31.51,111.77L32.6,110.16L34.58,108.58L39.9,103.85L41.52,102.27L48.83,97.54L52.42,95.96L52.91,94.38L56.28,92.8L79.05,88.07L75.14,86.49L62.44,84.91L72.42,83.33L85.46,81.75L109.25,80.18L90.35,78.57L82.16,76.99L67.4,73.83L63.69,72.25L54.05,67.52L52.08,65.94L49.95,62.78L49.56,61.21L49.25,59.63L47.79,58.05L46.93,56.47L47.92,54.89L50.19,51.74L54.41,50.16L58.68,48.55L58.25,46.97L57.39,43.81L56.88,42.24L56.64,39.08L55.83,37.5L52.32,31.19L50.5,29.61L47.26,28.03L49.77,26.45L51.26,24.88L48.85,23.3L40.86,21.72L38.7,20.14L40.25,18.56L43.57,16.95L48.56,15.38L57.4,13.8L61.1,12.22L67.62,10.64L98.46,5.91L119.32,4.33L134.88,2.75L119.94,1.17L85.45,-5.14L75.49,-6.72L62.24,-8.3L66.02,-9.87L87.24,-13.06L119.73,-14.64L158.54,-17.8L136.96,-19.38L120.25,-20.95L118.7,-22.53L141.32,-25.69L159.27,-27.27L231.69,-30.42L282.63,-32L247.25,-33.58L260.32,-35.16L249.33,-36.74L286.37,-38.31L236.77,-39.89L243,-41.47L275.78,-47.81L186.35,-49.39L76.9,-58.86L66.39,-60.44L22.28,-71.49L21.7,-73.06L1.84,-76.25L0.59,-77.83L0,-85.72L0,-87.3L0,-99.93" style="vector-effect: non-scaling-stroke; fill: none; stroke: rgb(255, 0, 0); stroke-opacity: 1; stroke-width: 2px; opacity: 1;"/></g><g class="points"/><g class="text"/></g></g></g><g class="overplot"/><path class="xlines-above"/><path class="ylines-above"/><g class="overlines-above"/><g class="xaxislayer-above"/><g class="yaxislayer-above"/><g class="overaxes-above"/></g></g><g class="polarlayer"/><g class="ternarylayer"/><g class="geolayer"/><g class="funnelarealayer"/><g class="pielayer"/><g class="treemaplayer"/><g class="sunburstlayer"/><g class="glimages"/><defs id="topdefs-a7c590"><g class="clips"/></defs><g class="layer-above"><g class="imagelayer"/><g class="shapelayer"/></g><g class="infolayer"><g class="g-gtitle"><text class="gtitle" x="350" y="30" text-anchor="middle" dy="0em" style="font-family: Arial; font-size: 20px; fill: rgb(0, 0, 0); opacity: 1; font-weight: normal; white-space: pre;">Sc <tspan style="font-style:italic">3d</tspan> Projected DOS (AuCu​<tspan style="font-size:70%" dy="0.3em">3</tspan><tspan dy="-0.21em">​</tspan>-type ScAl​<tspan style="font-size:70%" dy="0.3em">3</tspan><tspan dy="-0.21em">​</tspan>)</text></g><g class="g-xtitle"><text class="xtitle" x="364.5" y="487.7125" text-anchor="middle" style="font-family: Arial; font-size: 17px; fill: rgb(0, 0, 0); opacity: 1; font-weight: normal; white-space: pre;">states per eV</text></g><g class="g-ytitle" transform="translate(3.712890625,0)"><text class="ytitle" transform="rotate(-90,12.287499999999994,247)" x="12.287499999999994" y="247" text-anchor="middle" style="font-family: Arial; font-size: 17px; fill: rgb(0, 0, 0); opacity: 1; font-weight: normal; white-space: pre;">Energy (eV)</text></g></g></svg>