<svg class="main-svg" xmlns="http://www.w3.org/2000/svg" xmlns:xlink="http://www.w3.org/1999/xlink" width="400" height="800" style="" viewBox="0 0 400 800"><rect x="0" y="0" width="400" height="800" style="fill: rgb(255, 255, 255); fill-opacity: 1;"/><defs id="defs-dde627"><g class="clips"><clipPath id="clipdde627xyplot" class="plotclip"><rect width="217" height="690"/></clipPath><clipPath class="axesclip" id="clipdde627x"><rect x="52" y="0" width="217" height="800"/></clipPath><clipPath class="axesclip" id="clipdde627y"><rect x="0" y="60" width="400" height="690"/></clipPath><clipPath class="axesclip" id="clipdde627xy"><rect x="52" y="60" width="217" height="690"/></clipPath></g><g class="gradients"/></defs><g class="bglayer"/><g class="layer-below"><g class="imagelayer"/><g class="shapelayer"/></g><g class="cartesianlayer"><g class="subplot xy"><g class="layer-subplot"><g class="shapelayer"/><g class="imagelayer"/></g><g class="gridlayer"><g class="x"/><g class="y"/></g><g class="zerolinelayer"><path class="xzl zl crisp" transform="translate(52,0)" d="M0,60v690" style="stroke: rgb(255, 255, 255); stroke-opacity: 1; stroke-width: 2px;"/><path class="yzl zl crisp" transform="translate(0,122.53999999999999)" d="M52,0h217" style="stroke: rgb(255, 255, 255); stroke-opacity: 1; stroke-width: 2px;"/></g><path class="xlines-below crisp" d="M50,751H271M50,59H271" style="fill: none; stroke-width: 2px; stroke: rgb(0, 0, 0); stroke-opacity: 1;"/><path class="ylines-below crisp" d="M51,60V750M270,60V750" style="fill: none; stroke-width: 2px; stroke: rgb(0, 0, 0); stroke-opacity: 1;"/><g class="overlines-below"/><g class="xaxislayer-below"><path class="xtick ticks crisp" d="M0,752v5" transform="translate(52,0)" style="stroke: rgb(68, 68, 68); stroke-opacity: 1; stroke-width: 1px;"/><path class="xtick ticks crisp" d="M0,752v5" transform="translate(128.42000000000002,0)" style="stroke: rgb(68, 68, 68); stroke-opacity: 1; stroke-width: 1px;"/><path class="xtick ticks crisp" d="M0,752v5" transform="translate(204.85,0)" style="stroke: rgb(68, 68, 68); stroke-opacity: 1; stroke-width: 1px;"/><g class="xtick"><text text-anchor="middle" x="0" y="773.8" transform="translate(52,0)" style="font-family: Arial; font-size: 14px; fill: rgb(0, 0, 0); fill-opacity: 1; white-space: pre;">0</text></g><g class="xtick"><text text-anchor="middle" x="0" y="773.8" transform="translate(128.42000000000002,0)" style="font-family: Arial; font-size: 14px; fill: rgb(0, 0, 0); fill-opacity: 1; white-space: pre;">10</text></g><g class="xtick"><text text-anchor="middle" x="0" y="773.8" transform="translate(204.85,0)" style="font-family: Arial; font-size: 14px; fill: rgb(0, 0, 0); fill-opacity: 1; white-space: pre;">20</text></g></g><g class="yaxislayer-below"><path class="ytick ticks crisp" d="M50,0h-5" transform="translate(0,747.91)" style="stroke: rgb(68, 68, 68); stroke-opacity: 1; stroke-width: 1px;"/><path class="ytick ticks crisp" d="M50,0h-5" transform="translate(0,622.83)" style="stroke: rgb(68, 68, 68); stroke-opacity: 1; stroke-width: 1px;"/><path class="ytick ticks crisp" d="M50,0h-5" transform="translate(0,497.76)" style="stroke: rgb(68, 68, 68); stroke-opacity: 1; stroke-width: 1px;"/><path class="ytick ticks crisp" d="M50,0h-5" transform="translate(0,372.69)" style="stroke: rgb(68, 68, 68); stroke-opacity: 1; stroke-width: 1px;"/><path class="ytick ticks crisp" d="M50,0h-5" transform="translate(0,247.61)" style="stroke: rgb(68, 68, 68); stroke-opacity: 1; stroke-width: 1px;"/><path class="ytick ticks crisp" d="M50,0h-5" transform="translate(0,122.53999999999999)" style="stroke: rgb(68, 68, 68); stroke-opacity: 1; stroke-width: 1px;"/><g class="ytick"><text text-anchor="end" x="42.2" y="4.8999999999999995" transform="translate(0,747.91)" style="font-family: Arial; font-size: 14px; fill: rgb(0, 0, 0); fill-opacity: 1; white-space: pre;">−10</text></g><g class="ytick"><text text-anchor="end" x="42.2" y="4.8999999999999995" transform="translate(0,622.83)" style="font-family: Arial; font-size: 14px; fill: rgb(0, 0, 0); fill-opacity: 1; white-space: pre;">−8</text></g><g class="ytick"><text text-anchor="end" x="42.2" y="4.8999999999999995" transform="translate(0,497.76)" style="font-family: Arial; font-size: 14px; fill: rgb(0, 0, 0); fill-opacity: 1; white-space: pre;">−6</text></g><g class="ytick"><text text-anchor="end" x="42.2" y="4.8999999999999995" transform="translate(0,372.69)" style="font-family: Arial; font-size: 14px; fill: rgb(0, 0, 0); fill-opacity: 1; white-space: pre;">−4</text></g><g class="ytick"><text text-anchor="end" x="42.2" y="4.8999999999999995" transform="translate(0,247.61)" style="font-family: Arial; font-size: 14px; fill: rgb(0, 0, 0); fill-opacity: 1; white-space: pre;">−2</text></g><g class="ytick"><text text-anchor="end" x="42.2" y="4.8999999999999995" transform="translate(0,122.53999999999999)" style="font-family: Arial; font-size: 14px; fill: rgb(0, 0, 0); fill-opacity: 1; white-space: pre;">0</text></g></g><g class="overaxes-below"/><g class="plot" transform="translate(52,60)" clip-path="url('#clipdde627xyplot')"><g class="scatterlayer mlayer"><g class="trace scatter trace6bb2d2" style="stroke-miterlimit: 2; opacity: 1;"><g class="fills"/><g class="errorbars"/><g class="lines"><path class="js-line" d="M0,690L3.34,686.86L4.81,683.73L8.24,671.18L8.94,668.04L11.82,652.35L12.26,649.22L13.14,642.94L13.15,639.8L15.39,627.25L15.83,624.12L17.71,614.7L18.63,611.57L18.81,605.29L18.26,602.16L18.34,595.88L18.99,592.74L21.34,586.47L21.58,583.33L24.57,577.06L23.6,573.92L24.94,567.64L23.5,564.51L21.83,558.23L19.99,555.1L17.67,551.96L17.73,548.82L18.24,545.68L20.52,542.55L23.14,539.41L27.87,536.27L29.32,533.13L27.57,530L27.3,526.86L26.16,523.72L25.41,511.17L25.71,508.04L27.47,504.9L27.97,501.76L27.8,495.49L29.71,492.35L31.32,489.21L30.77,486.08L30.15,482.94L31.25,479.8L32.91,476.66L33.45,473.53L31.11,470.39L31.53,467.25L36.88,460.98L37.65,457.84L35.99,454.7L38.37,451.56L40.46,445.29L40.81,442.15L43.02,439.02L42.91,435.88L42.43,432.74L43.6,429.6L44.27,426.47L46.16,423.33L42.92,417.05L44.56,413.92L46.48,410.78L45.57,407.64L42.99,404.5L46.15,401.37L48.69,398.23L52.97,395.09L50.64,391.96L47.29,388.82L45.86,385.68L51.15,382.54L52.92,376.27L55.06,373.13L56.77,369.99L60.07,366.86L57.71,363.72L57.06,360.58L58.34,357.44L58.77,354.31L60.43,351.17L58.93,348.03L59.51,344.9L57.88,341.76L57.6,338.62L51.51,335.48L53.91,332.35L53.95,329.21L45.69,322.93L36.62,319.8L25.5,316.66L27.39,313.52L37.68,310.39L40.44,307.25L41.73,304.11L42.04,300.97L40.38,297.84L35.03,294.7L38.84,291.56L58.54,288.42L72.87,285.29L83.39,282.15L70.36,275.87L119.13,272.74L117.17,269.6L104.3,266.46L91.36,263.33L101.99,260.19L140.21,253.91L151.39,250.78L119.87,247.64L68.73,244.5L138.09,238.23L144.81,235.09L156.5,231.95L187.46,228.81L197.27,225.68L192.92,222.54L160.73,219.4L151.38,216.27L158.38,213.13L167.72,209.99L130.89,206.85L131.88,203.72L142.76,200.58L168.5,197.44L171.43,194.3L164.14,191.17L151.81,188.03L145.61,184.89L153.23,181.75L93.32,178.62L72.17,175.48L75.69,172.34L67.87,169.21L69.41,166.07L59.43,162.93L60.86,159.79L90.86,153.52L78.76,150.38L63.5,144.11L63.04,140.97L59.69,137.83L65.24,134.7L92.31,131.56L87.57,128.42L50.82,119.01L48.32,115.87L42.88,112.73L45.16,109.6L41.3,106.46L32.45,103.32L26.12,100.19L22.53,97.05L23.37,93.91L49.05,90.77L74.18,87.64L80.11,84.5L71.65,81.36L53.56,78.22L59.38,75.09L54.74,71.95L50.79,68.81L51.83,65.67L54.41,62.54L49.88,59.4L42.18,53.13L42.01,49.99L46.38,43.71L44.8,40.58L43.03,37.44L50.87,34.3L49.35,31.16L46.31,28.03L50.59,24.89L44.26,21.75L38.74,18.61L37.52,15.48L36.32,12.34L36.15,9.2L34.4,6.07L36.61,2.93L37.55,-0.21L41.81,-3.35L41.53,-6.48L38.05,-9.62L35.47,-15.9L40.57,-19.03L83.74,-31.58L73.88,-34.72L75.89,-37.86L71.61,-40.99L72.71,-44.13L72.28,-47.27L53.97,-66.09L53.65,-69.23L59.91,-75.5L55.04,-78.64L59.03,-84.92L54.36,-88.05L54.1,-94.33L55.1,-97.47L58.02,-110.02L59.17,-113.15L62.2,-116.29L61.63,-119.43L60.71,-122.56L63,-125.7L64.17,-128.84L62.9,-131.98L61.4,-144.53L63.42,-147.66L65.42,-157.08L65.22,-160.21L60.75,-166.49L61.17,-169.62L63.82,-185.31L63.96,-188.45L67.34,-194.72L64.42,-197.86L67.58,-201L64.33,-204.13L62.96,-207.27L65.34,-210.41L58.03,-216.68L62.12,-219.82L65.43,-226.1L65.27,-229.23L55.26,-251.19" style="vector-effect: non-scaling-stroke; fill: none; stroke: rgb(0, 0, 0); stroke-opacity: 1; stroke-width: 2px; opacity: 1;"/></g><g class="points"/><g class="text"/></g><g class="trace scatter tracec90c24" style="stroke-miterlimit: 2; opacity: 1;"><g class="fills"/><g class="errorbars"/><g class="lines"><path class="js-line" d="M0,62.54L217,62.54" style="vector-effect: non-scaling-stroke; fill: none; stroke: rgb(0, 0, 0); stroke-opacity: 1; stroke-width: 2px; opacity: 1; stroke-dasharray: 9px, 9px;"/></g><g class="points"/><g class="text"/></g><g class="trace scatter tracef48407" style="stroke-miterlimit: 2;"><g class="fills"><g><path class="js-fill" d="M0,-251.19L0,690L0,690L0.71,442.15L0.79,439.02L2.45,398.23L2.81,395.09L2.53,369.99L2.78,366.86L2.24,357.44L2.86,354.31L3.57,351.17L3.42,348.03L3.96,329.21L3.16,326.07L1.87,319.8L1.1,316.66L2.41,310.39L2.92,307.25L3.33,300.97L2.92,297.84L2.42,294.7L2.71,291.56L7.03,282.15L5.68,279.01L4.99,275.87L10.11,272.74L11.47,269.6L10.2,266.46L9.16,263.33L9.99,260.19L14.16,253.91L14.8,250.78L14.21,247.64L10.08,244.5L17.66,241.36L22.95,238.23L25.64,235.09L30.95,231.95L35.11,228.81L29.6,225.68L25.45,222.54L17.54,219.4L19.99,216.27L24.18,213.13L27.65,209.99L29.06,206.85L21.45,200.58L21.53,197.44L22.72,194.3L23,191.17L19.32,188.03L17.85,184.89L19.76,181.75L14.47,178.62L11.31,175.48L12.42,172.34L10.51,169.21L9.71,166.07L7.09,162.93L6.7,159.79L8.14,156.66L8.73,153.52L5.05,140.97L4.44,137.83L3.49,122.15L3.31,119.01L3.66,112.73L4.73,109.6L4.01,106.46L2.45,103.32L1.13,93.91L1.85,90.77L4.39,81.36L3.9,78.22L5.56,65.67L6.62,62.54L5.33,46.85L5.34,43.71L4.29,37.44L4.74,34.3L3.14,28.03L3.09,24.89L2.16,12.34L2.35,9.2L2.79,-0.21L3.28,-3.35L3.07,-9.62L2.74,-12.76L2.52,-22.17L2.87,-25.31L3.41,-37.86L2.98,-40.99L2.4,-59.82L2.14,-62.96L1.73,-78.64L1.81,-81.78L1.37,-138.25L1.29,-141.39L0.64,-251.19" style="fill: rgb(0, 0, 0); fill-opacity: 0.5; stroke-width: 0;"/></g></g><g class="errorbars"/><g class="lines"><path class="js-line" d="M0,690L0.71,442.15L0.79,439.02L2.45,398.23L2.81,395.09L2.53,369.99L2.78,366.86L2.24,357.44L2.86,354.31L3.57,351.17L3.42,348.03L3.96,329.21L3.16,326.07L1.87,319.8L1.1,316.66L2.41,310.39L2.92,307.25L3.33,300.97L2.92,297.84L2.42,294.7L2.71,291.56L7.03,282.15L5.68,279.01L4.99,275.87L10.11,272.74L11.47,269.6L10.2,266.46L9.16,263.33L9.99,260.19L14.16,253.91L14.8,250.78L14.21,247.64L10.08,244.5L17.66,241.36L22.95,238.23L25.64,235.09L30.95,231.95L35.11,228.81L29.6,225.68L25.45,222.54L17.54,219.4L19.99,216.27L24.18,213.13L27.65,209.99L29.06,206.85L21.45,200.58L21.53,197.44L22.72,194.3L23,191.17L19.32,188.03L17.85,184.89L19.76,181.75L14.47,178.62L11.31,175.48L12.42,172.34L10.51,169.21L9.71,166.07L7.09,162.93L6.7,159.79L8.14,156.66L8.73,153.52L5.05,140.97L4.44,137.83L3.49,122.15L3.31,119.01L3.66,112.73L4.73,109.6L4.01,106.46L2.45,103.32L1.13,93.91L1.85,90.77L4.39,81.36L3.9,78.22L5.56,65.67L6.62,62.54L5.33,46.85L5.34,43.71L4.29,37.44L4.74,34.3L3.14,28.03L3.09,24.89L2.16,12.34L2.35,9.2L2.79,-0.21L3.28,-3.35L3.07,-9.62L2.74,-12.76L2.52,-22.17L2.87,-25.31L3.41,-37.86L2.98,-40.99L2.4,-59.82L2.14,-62.96L1.73,-78.64L1.81,-81.78L1.37,-138.25L1.29,-141.39L0.64,-251.19" style="vector-effect: non-scaling-stroke; fill: none; stroke: rgb(0, 0, 0); stroke-opacity: 1; stroke-width: 2px; opacity: 1;"/></g><g class="points"/><g class="text"/></g></g></g><g class="overplot"/><path class="xlines-above"/><path class="ylines-above"/><g class="overlines-above"/><g class="xaxislayer-above"/><g class="yaxislayer-above"/><g class="overaxes-above"/></g></g><g class="polarlayer"/><g class="ternarylayer"/><g class="geolayer"/><g class="funnelarealayer"/><g class="pielayer"/><g class="treemaplayer"/><g class="sunburstlayer"/><g class="glimages"/><defs id="topdefs-dde627"><g class="clips"/><clipPath id="legenddde627"><rect width="115" height="53" x="0" y="0"/></clipPath></defs><g class="layer-above"><g class="imagelayer"/><g class="shapelayer"/></g><g class="infolayer"><g class="legend" pointer-events="all" transform="translate(273.34000000000003,60)"><rect class="bg" shape-rendering="crispEdges" style="stroke: rgb(68, 68, 68); stroke-opacity: 1; fill: rgb(255, 255, 255); fill-opacity: 1; stroke-width: 0px;" width="115" height="53" x="0" y="0"/><g class="scrollbox" transform="" clip-path="url('#legenddde627')"><g class="groups"><g class="traces" transform="translate(0,15.6)" style="opacity: 1;"><text class="legendtext" text-anchor="start" x="40" y="5.46" style="font-family: Arial; font-size: 14px; fill: rgb(0, 0, 0); fill-opacity: 1; white-space: pre;">Total DOS</text><g class="layers" style="opacity: 1;"><g class="legendfill"/><g class="legendlines"><path class="js-line" d="M5,0h30" style="fill: none; stroke: rgb(0, 0, 0); stroke-opacity: 1; stroke-width: 2px;"/></g><g class="legendsymbols"><g class="legendpoints"/></g></g><rect class="legendtoggle" x="0" y="-10.6" width="110" height="21.2" style="fill: rgb(0, 0, 0); fill-opacity: 0;"/></g><g class="traces" transform="translate(0,36.8)" style="opacity: 1;"><text class="legendtext" text-anchor="start" x="40" y="5.46" style="font-family: Arial; font-size: 14px; fill: rgb(0, 0, 0); fill-opacity: 1; white-space: pre;">Ir d​<tspan style="font-size:70%" dy="0.3em">z​<tspan style="font-size:70%" dy="-0.6em">2​<tspan style="font-size:70%" dy="-0.6em"></tspan><tspan dy="0.42em">​</tspan></tspan><tspan dy="0.42em">​</tspan></tspan><tspan dy="-0.21em">​</tspan></text><g class="layers"><g class="legendfill"><path class="js-fill" d="M5,-2h30v6h-30z" style="stroke-width: 0; fill: rgb(0, 0, 0); fill-opacity: 0.5;"/></g><g class="legendlines"><path class="js-line" d="M5,-2h30" style="fill: none; stroke: rgb(0, 0, 0); stroke-opacity: 1; stroke-width: 2px;"/></g><g class="legendsymbols"><g class="legendpoints"/></g></g><rect class="legendtoggle" x="0" y="-10.6" width="110" height="21.2" style="fill: rgb(0, 0, 0); fill-opacity: 0;"/></g></g></g><rect class="scrollbar" rx="20" ry="3" width="0" height="0" style="fill: rgb(128, 139, 164); fill-opacity: 1;" x="0" y="0"/></g><g class="g-gtitle"/><g class="g-xtitle"/><g class="g-ytitle"/></g></svg>