<svg class="main-svg" xmlns="http://www.w3.org/2000/svg" xmlns:xlink="http://www.w3.org/1999/xlink" width="400" height="800" style="" viewBox="0 0 400 800"><rect x="0" y="0" width="400" height="800" style="fill: rgb(255, 255, 255); fill-opacity: 1;"/><defs id="defs-534b30"><g class="clips"><clipPath id="clip534b30xyplot" class="plotclip"><rect width="217" height="690"/></clipPath><clipPath class="axesclip" id="clip534b30x"><rect x="52" y="0" width="217" height="800"/></clipPath><clipPath class="axesclip" id="clip534b30y"><rect x="0" y="60" width="400" height="690"/></clipPath><clipPath class="axesclip" id="clip534b30xy"><rect x="52" y="60" width="217" height="690"/></clipPath></g><g class="gradients"/></defs><g class="bglayer"/><g class="layer-below"><g class="imagelayer"/><g class="shapelayer"/></g><g class="cartesianlayer"><g class="subplot xy"><g class="layer-subplot"><g class="shapelayer"/><g class="imagelayer"/></g><g class="gridlayer"><g class="x"/><g class="y"/></g><g class="zerolinelayer"><path class="xzl zl crisp" transform="translate(52,0)" d="M0,60v690" style="stroke: rgb(255, 255, 255); stroke-opacity: 1; stroke-width: 2px;"/><path class="yzl zl crisp" transform="translate(0,122.53999999999999)" d="M52,0h217" style="stroke: rgb(255, 255, 255); stroke-opacity: 1; stroke-width: 2px;"/></g><path class="xlines-below crisp" d="M50,751H271M50,59H271" style="fill: none; stroke-width: 2px; stroke: rgb(0, 0, 0); stroke-opacity: 1;"/><path class="ylines-below crisp" d="M51,60V750M270,60V750" style="fill: none; stroke-width: 2px; stroke: rgb(0, 0, 0); stroke-opacity: 1;"/><g class="overlines-below"/><g class="xaxislayer-below"><path class="xtick ticks crisp" d="M0,752v5" transform="translate(52,0)" style="stroke: rgb(68, 68, 68); stroke-opacity: 1; stroke-width: 1px;"/><path class="xtick ticks crisp" d="M0,752v5" transform="translate(128.42000000000002,0)" style="stroke: rgb(68, 68, 68); stroke-opacity: 1; stroke-width: 1px;"/><path class="xtick ticks crisp" d="M0,752v5" transform="translate(204.85,0)" style="stroke: rgb(68, 68, 68); stroke-opacity: 1; stroke-width: 1px;"/><g class="xtick"><text text-anchor="middle" x="0" y="773.8" transform="translate(52,0)" style="font-family: Arial; font-size: 14px; fill: rgb(0, 0, 0); fill-opacity: 1; white-space: pre;">0</text></g><g class="xtick"><text text-anchor="middle" x="0" y="773.8" transform="translate(128.42000000000002,0)" style="font-family: Arial; font-size: 14px; fill: rgb(0, 0, 0); fill-opacity: 1; white-space: pre;">10</text></g><g class="xtick"><text text-anchor="middle" x="0" y="773.8" transform="translate(204.85,0)" style="font-family: Arial; font-size: 14px; fill: rgb(0, 0, 0); fill-opacity: 1; white-space: pre;">20</text></g></g><g class="yaxislayer-below"><path class="ytick ticks crisp" d="M50,0h-5" transform="translate(0,747.91)" style="stroke: rgb(68, 68, 68); stroke-opacity: 1; stroke-width: 1px;"/><path class="ytick ticks crisp" d="M50,0h-5" transform="translate(0,622.83)" style="stroke: rgb(68, 68, 68); stroke-opacity: 1; stroke-width: 1px;"/><path class="ytick ticks crisp" d="M50,0h-5" transform="translate(0,497.76)" style="stroke: rgb(68, 68, 68); stroke-opacity: 1; stroke-width: 1px;"/><path class="ytick ticks crisp" d="M50,0h-5" transform="translate(0,372.69)" style="stroke: rgb(68, 68, 68); stroke-opacity: 1; stroke-width: 1px;"/><path class="ytick ticks crisp" d="M50,0h-5" transform="translate(0,247.61)" style="stroke: rgb(68, 68, 68); stroke-opacity: 1; stroke-width: 1px;"/><path class="ytick ticks crisp" d="M50,0h-5" transform="translate(0,122.53999999999999)" style="stroke: rgb(68, 68, 68); stroke-opacity: 1; stroke-width: 1px;"/><g class="ytick"><text text-anchor="end" x="42.2" y="4.8999999999999995" transform="translate(0,747.91)" style="font-family: Arial; font-size: 14px; fill: rgb(0, 0, 0); fill-opacity: 1; white-space: pre;">−10</text></g><g class="ytick"><text text-anchor="end" x="42.2" y="4.8999999999999995" transform="translate(0,622.83)" style="font-family: Arial; font-size: 14px; fill: rgb(0, 0, 0); fill-opacity: 1; white-space: pre;">−8</text></g><g class="ytick"><text text-anchor="end" x="42.2" y="4.8999999999999995" transform="translate(0,497.76)" style="font-family: Arial; font-size: 14px; fill: rgb(0, 0, 0); fill-opacity: 1; white-space: pre;">−6</text></g><g class="ytick"><text text-anchor="end" x="42.2" y="4.8999999999999995" transform="translate(0,372.69)" style="font-family: Arial; font-size: 14px; fill: rgb(0, 0, 0); fill-opacity: 1; white-space: pre;">−4</text></g><g class="ytick"><text text-anchor="end" x="42.2" y="4.8999999999999995" transform="translate(0,247.61)" style="font-family: Arial; font-size: 14px; fill: rgb(0, 0, 0); fill-opacity: 1; white-space: pre;">−2</text></g><g class="ytick"><text text-anchor="end" x="42.2" y="4.8999999999999995" transform="translate(0,122.53999999999999)" style="font-family: Arial; font-size: 14px; fill: rgb(0, 0, 0); fill-opacity: 1; white-space: pre;">0</text></g></g><g class="overaxes-below"/><g class="plot" transform="translate(52,60)" clip-path="url('#clip534b30xyplot')"><g class="scatterlayer mlayer"><g class="trace scatter tracec66b94" style="stroke-miterlimit: 2; opacity: 1;"><g class="fills"/><g class="errorbars"/><g class="lines"><path class="js-line" d="M0,690L3.34,686.86L4.81,683.73L8.24,671.18L8.94,668.04L11.82,652.35L12.26,649.22L13.14,642.94L13.15,639.8L15.39,627.25L15.83,624.12L17.71,614.7L18.63,611.57L18.81,605.29L18.26,602.16L18.34,595.88L18.99,592.74L21.34,586.47L21.58,583.33L24.57,577.06L23.6,573.92L24.94,567.64L23.5,564.51L21.83,558.23L19.99,555.1L17.67,551.96L17.73,548.82L18.24,545.68L20.52,542.55L23.14,539.41L27.87,536.27L29.32,533.13L27.57,530L27.3,526.86L26.16,523.72L25.41,511.17L25.71,508.04L27.47,504.9L27.97,501.76L27.8,495.49L29.71,492.35L31.32,489.21L30.77,486.08L30.15,482.94L31.25,479.8L32.91,476.66L33.45,473.53L31.11,470.39L31.53,467.25L36.88,460.98L37.65,457.84L35.99,454.7L38.37,451.56L40.46,445.29L40.81,442.15L43.02,439.02L42.91,435.88L42.43,432.74L43.6,429.6L44.27,426.47L46.16,423.33L42.92,417.05L44.56,413.92L46.48,410.78L45.57,407.64L42.99,404.5L46.15,401.37L48.69,398.23L52.97,395.09L50.64,391.96L47.29,388.82L45.86,385.68L51.15,382.54L52.92,376.27L55.06,373.13L56.77,369.99L60.07,366.86L57.71,363.72L57.06,360.58L58.34,357.44L58.77,354.31L60.43,351.17L58.93,348.03L59.51,344.9L57.88,341.76L57.6,338.62L51.51,335.48L53.91,332.35L53.95,329.21L45.69,322.93L36.62,319.8L25.5,316.66L27.39,313.52L37.68,310.39L40.44,307.25L41.73,304.11L42.04,300.97L40.38,297.84L35.03,294.7L38.84,291.56L58.54,288.42L72.87,285.29L83.39,282.15L70.36,275.87L119.13,272.74L117.17,269.6L104.3,266.46L91.36,263.33L101.99,260.19L140.21,253.91L151.39,250.78L119.87,247.64L68.73,244.5L138.09,238.23L144.81,235.09L156.5,231.95L187.46,228.81L197.27,225.68L192.92,222.54L160.73,219.4L151.38,216.27L158.38,213.13L167.72,209.99L130.89,206.85L131.88,203.72L142.76,200.58L168.5,197.44L171.43,194.3L164.14,191.17L151.81,188.03L145.61,184.89L153.23,181.75L93.32,178.62L72.17,175.48L75.69,172.34L67.87,169.21L69.41,166.07L59.43,162.93L60.86,159.79L90.86,153.52L78.76,150.38L63.5,144.11L63.04,140.97L59.69,137.83L65.24,134.7L92.31,131.56L87.57,128.42L50.82,119.01L48.32,115.87L42.88,112.73L45.16,109.6L41.3,106.46L32.45,103.32L26.12,100.19L22.53,97.05L23.37,93.91L49.05,90.77L74.18,87.64L80.11,84.5L71.65,81.36L53.56,78.22L59.38,75.09L54.74,71.95L50.79,68.81L51.83,65.67L54.41,62.54L49.88,59.4L42.18,53.13L42.01,49.99L46.38,43.71L44.8,40.58L43.03,37.44L50.87,34.3L49.35,31.16L46.31,28.03L50.59,24.89L44.26,21.75L38.74,18.61L37.52,15.48L36.32,12.34L36.15,9.2L34.4,6.07L36.61,2.93L37.55,-0.21L41.81,-3.35L41.53,-6.48L38.05,-9.62L35.47,-15.9L40.57,-19.03L83.74,-31.58L73.88,-34.72L75.89,-37.86L71.61,-40.99L72.71,-44.13L72.28,-47.27L53.97,-66.09L53.65,-69.23L59.91,-75.5L55.04,-78.64L59.03,-84.92L54.36,-88.05L54.1,-94.33L55.1,-97.47L58.02,-110.02L59.17,-113.15L62.2,-116.29L61.63,-119.43L60.71,-122.56L63,-125.7L64.17,-128.84L62.9,-131.98L61.4,-144.53L63.42,-147.66L65.42,-157.08L65.22,-160.21L60.75,-166.49L61.17,-169.62L63.82,-185.31L63.96,-188.45L67.34,-194.72L64.42,-197.86L67.58,-201L64.33,-204.13L62.96,-207.27L65.34,-210.41L58.03,-216.68L62.12,-219.82L65.43,-226.1L65.27,-229.23L55.26,-251.19" style="vector-effect: non-scaling-stroke; fill: none; stroke: rgb(0, 0, 0); stroke-opacity: 1; stroke-width: 2px; opacity: 1;"/></g><g class="points"/><g class="text"/></g><g class="trace scatter trace9c1e7a" style="stroke-miterlimit: 2; opacity: 1;"><g class="fills"/><g class="errorbars"/><g class="lines"><path class="js-line" d="M0,62.54L217,62.54" style="vector-effect: non-scaling-stroke; fill: none; stroke: rgb(0, 0, 0); stroke-opacity: 1; stroke-width: 2px; opacity: 1; stroke-dasharray: 9px, 9px;"/></g><g class="points"/><g class="text"/></g><g class="trace scatter traceca5617" style="stroke-miterlimit: 2;"><g class="fills"><g><path class="js-fill" d="M0,-251.19L0,690L0,690L0.73,530L0.77,526.86L1.5,486.08L1.53,482.94L3.58,442.15L4,439.02L6.92,404.5L7.8,401.37L9.91,391.96L9.65,388.82L9.75,385.68L11.41,382.54L13.79,373.13L14.66,369.99L16.09,366.86L16.1,363.72L17.57,357.44L18.46,354.31L19.67,351.17L19.83,348.03L20.86,344.9L20.98,341.76L21.43,338.62L19.26,335.48L20.13,329.21L18.3,326.07L17.26,322.93L13.51,319.8L9.22,316.66L9.78,313.52L13.91,310.39L14.5,307.25L15.57,300.97L15.15,297.84L13.45,294.7L16.09,291.56L33.13,285.29L38.98,282.15L34.67,275.87L62.01,272.74L61.21,269.6L54.94,266.46L48.68,263.33L56.79,260.19L94.24,250.78L75.12,247.64L43.99,244.5L70.59,241.36L92.97,238.23L98.79,235.09L108.38,231.95L133.71,228.81L145.35,225.68L145.99,222.54L125.35,219.4L118.03,216.27L123.81,213.13L133.02,209.99L104.11,206.85L102.85,203.72L108.78,200.58L128.93,197.44L131.76,194.3L125.1,191.17L114.31,188.03L113.01,184.89L121.98,181.75L68.26,178.62L49.31,175.48L46.66,172.34L39.42,169.21L39.01,166.07L32.54,162.93L32.4,159.79L44.9,153.52L35.72,150.38L30.13,147.24L27.1,144.11L29.24,140.97L27.85,137.83L30.68,134.7L45.61,131.56L40.82,128.42L32.2,125.28L25.04,122.15L20.08,119.01L18.66,115.87L16.24,112.73L16.7,109.6L14.95,106.46L10.95,103.32L8.21,100.19L7,97.05L7.3,93.91L27.46,87.64L29.04,84.5L25.33,81.36L18.35,78.22L19.6,75.09L17.3,71.95L15.7,68.81L15.81,65.67L16.52,62.54L14.95,59.4L12.61,53.13L12.43,49.99L13.63,43.71L13.08,40.58L12.82,37.44L16.25,34.3L16.27,31.16L14.67,28.03L15.41,24.89L12.99,21.75L10.93,18.61L10.49,15.48L9.3,6.07L9.94,2.93L9.96,-0.21L11.1,-3.35L11.33,-6.48L10.22,-9.62L9.21,-15.9L10.88,-19.03L23.76,-31.58L20.08,-34.72L19.99,-37.86L18.33,-40.99L15.72,-50.41L14.67,-53.54L9.41,-69.23L9.9,-72.37L9.31,-84.92L8.41,-88.05L6.82,-147.66L6.85,-150.8L3.83,-251.19" style="fill: rgb(0, 0, 0); fill-opacity: 0.5; stroke-width: 0;"/></g></g><g class="errorbars"/><g class="lines"><path class="js-line" d="M0,690L0.73,530L0.77,526.86L1.5,486.08L1.53,482.94L3.58,442.15L4,439.02L6.92,404.5L7.8,401.37L9.91,391.96L9.65,388.82L9.75,385.68L11.41,382.54L13.79,373.13L14.66,369.99L16.09,366.86L16.1,363.72L17.57,357.44L18.46,354.31L19.67,351.17L19.83,348.03L20.86,344.9L20.98,341.76L21.43,338.62L19.26,335.48L20.13,329.21L18.3,326.07L17.26,322.93L13.51,319.8L9.22,316.66L9.78,313.52L13.91,310.39L14.5,307.25L15.57,300.97L15.15,297.84L13.45,294.7L16.09,291.56L33.13,285.29L38.98,282.15L34.67,275.87L62.01,272.74L61.21,269.6L54.94,266.46L48.68,263.33L56.79,260.19L94.24,250.78L75.12,247.64L43.99,244.5L70.59,241.36L92.97,238.23L98.79,235.09L108.38,231.95L133.71,228.81L145.35,225.68L145.99,222.54L125.35,219.4L118.03,216.27L123.81,213.13L133.02,209.99L104.11,206.85L102.85,203.72L108.78,200.58L128.93,197.44L131.76,194.3L125.1,191.17L114.31,188.03L113.01,184.89L121.98,181.75L68.26,178.62L49.31,175.48L46.66,172.34L39.42,169.21L39.01,166.07L32.54,162.93L32.4,159.79L44.9,153.52L35.72,150.38L30.13,147.24L27.1,144.11L29.24,140.97L27.85,137.83L30.68,134.7L45.61,131.56L40.82,128.42L32.2,125.28L25.04,122.15L20.08,119.01L18.66,115.87L16.24,112.73L16.7,109.6L14.95,106.46L10.95,103.32L8.21,100.19L7,97.05L7.3,93.91L27.46,87.64L29.04,84.5L25.33,81.36L18.35,78.22L19.6,75.09L17.3,71.95L15.7,68.81L15.81,65.67L16.52,62.54L14.95,59.4L12.61,53.13L12.43,49.99L13.63,43.71L13.08,40.58L12.82,37.44L16.25,34.3L16.27,31.16L14.67,28.03L15.41,24.89L12.99,21.75L10.93,18.61L10.49,15.48L9.3,6.07L9.94,2.93L9.96,-0.21L11.1,-3.35L11.33,-6.48L10.22,-9.62L9.21,-15.9L10.88,-19.03L23.76,-31.58L20.08,-34.72L19.99,-37.86L18.33,-40.99L15.72,-50.41L14.67,-53.54L9.41,-69.23L9.9,-72.37L9.31,-84.92L8.41,-88.05L6.82,-147.66L6.85,-150.8L3.83,-251.19" style="vector-effect: non-scaling-stroke; fill: none; stroke: rgb(0, 0, 0); stroke-opacity: 1; stroke-width: 2px; opacity: 1;"/></g><g class="points"/><g class="text"/></g></g></g><g class="overplot"/><path class="xlines-above"/><path class="ylines-above"/><g class="overlines-above"/><g class="xaxislayer-above"/><g class="yaxislayer-above"/><g class="overaxes-above"/></g></g><g class="polarlayer"/><g class="ternarylayer"/><g class="geolayer"/><g class="funnelarealayer"/><g class="pielayer"/><g class="treemaplayer"/><g class="sunburstlayer"/><g class="glimages"/><defs id="topdefs-534b30"><g class="clips"/><clipPath id="legend534b30"><rect width="115" height="53" x="0" y="0"/></clipPath></defs><g class="layer-above"><g class="imagelayer"/><g class="shapelayer"/></g><g class="infolayer"><g class="legend" pointer-events="all" transform="translate(273.34000000000003,60)"><rect class="bg" shape-rendering="crispEdges" style="stroke: rgb(68, 68, 68); stroke-opacity: 1; fill: rgb(255, 255, 255); fill-opacity: 1; stroke-width: 0px;" width="115" height="53" x="0" y="0"/><g class="scrollbox" transform="" clip-path="url('#legend534b30')"><g class="groups"><g class="traces" transform="translate(0,15.6)" style="opacity: 1;"><text class="legendtext" text-anchor="start" x="40" y="5.46" style="font-family: Arial; font-size: 14px; fill: rgb(0, 0, 0); fill-opacity: 1; white-space: pre;">Total DOS</text><g class="layers" style="opacity: 1;"><g class="legendfill"/><g class="legendlines"><path class="js-line" d="M5,0h30" style="fill: none; stroke: rgb(0, 0, 0); stroke-opacity: 1; stroke-width: 2px;"/></g><g class="legendsymbols"><g class="legendpoints"/></g></g><rect class="legendtoggle" x="0" y="-10.6" width="110" height="21.2" style="fill: rgb(0, 0, 0); fill-opacity: 0;"/></g><g class="traces" transform="translate(0,36.8)" style="opacity: 1;"><text class="legendtext" text-anchor="start" x="40" y="5.46" style="font-family: Arial; font-size: 14px; fill: rgb(0, 0, 0); fill-opacity: 1; white-space: pre;">In d</text><g class="layers"><g class="legendfill"><path class="js-fill" d="M5,-2h30v6h-30z" style="stroke-width: 0; fill: rgb(0, 0, 0); fill-opacity: 0.5;"/></g><g class="legendlines"><path class="js-line" d="M5,-2h30" style="fill: none; stroke: rgb(0, 0, 0); stroke-opacity: 1; stroke-width: 2px;"/></g><g class="legendsymbols"><g class="legendpoints"/></g></g><rect class="legendtoggle" x="0" y="-10.6" width="110" height="21.2" style="fill: rgb(0, 0, 0); fill-opacity: 0;"/></g></g></g><rect class="scrollbar" rx="20" ry="3" width="0" height="0" style="fill: rgb(128, 139, 164); fill-opacity: 1;" x="0" y="0"/></g><g class="g-gtitle"/><g class="g-xtitle"/><g class="g-ytitle"/></g></svg>