<svg class="main-svg" xmlns="http://www.w3.org/2000/svg" xmlns:xlink="http://www.w3.org/1999/xlink" width="400" height="800" style="" viewBox="0 0 400 800"><rect x="0" y="0" width="400" height="800" style="fill: rgb(255, 255, 255); fill-opacity: 1;"/><defs id="defs-88c493"><g class="clips"><clipPath id="clip88c493xyplot" class="plotclip"><rect width="271" height="674"/></clipPath><clipPath class="axesclip" id="clip88c493x"><rect x="79" y="0" width="271" height="800"/></clipPath><clipPath class="axesclip" id="clip88c493y"><rect x="0" y="60" width="400" height="674"/></clipPath><clipPath class="axesclip" id="clip88c493xy"><rect x="79" y="60" width="271" height="674"/></clipPath></g><g class="gradients"/></defs><g class="bglayer"/><g class="layer-below"><g class="imagelayer"/><g class="shapelayer"/></g><g class="cartesianlayer"><g class="subplot xy"><g class="layer-subplot"><g class="shapelayer"/><g class="imagelayer"/></g><g class="gridlayer"><g class="x"/><g class="y"/></g><g class="zerolinelayer"><path class="xzl zl crisp" transform="translate(79,0)" d="M0,60v674" style="stroke: rgb(255, 255, 255); stroke-opacity: 1; stroke-width: 2px;"/></g><path class="xlines-below crisp" d="M77,735H352M77,59H352" style="fill: none; stroke-width: 2px; stroke: rgb(0, 0, 0); stroke-opacity: 1;"/><path class="ylines-below crisp" d="M78,60V734M351,60V734" style="fill: none; stroke-width: 2px; stroke: rgb(0, 0, 0); stroke-opacity: 1;"/><g class="overlines-below"/><g class="xaxislayer-below"><path class="xtick ticks crisp" d="M0,736v5" transform="translate(79,0)" style="stroke: rgb(68, 68, 68); stroke-opacity: 1; stroke-width: 1px;"/><path class="xtick ticks crisp" d="M0,736v5" transform="translate(177.49,0)" style="stroke: rgb(68, 68, 68); stroke-opacity: 1; stroke-width: 1px;"/><path class="xtick ticks crisp" d="M0,736v5" transform="translate(275.97,0)" style="stroke: rgb(68, 68, 68); stroke-opacity: 1; stroke-width: 1px;"/><g class="xtick"><text text-anchor="middle" x="0" y="757.8" transform="translate(79,0)" style="font-family: Arial; font-size: 14px; fill: rgb(0, 0, 0); fill-opacity: 1; white-space: pre;">0</text></g><g class="xtick"><text text-anchor="middle" x="0" y="757.8" transform="translate(177.49,0)" style="font-family: Arial; font-size: 14px; fill: rgb(0, 0, 0); fill-opacity: 1; white-space: pre;">2</text></g><g class="xtick"><text text-anchor="middle" x="0" y="757.8" transform="translate(275.97,0)" style="font-family: Arial; font-size: 14px; fill: rgb(0, 0, 0); fill-opacity: 1; white-space: pre;">4</text></g></g><g class="yaxislayer-below"><path class="ytick ticks crisp" d="M77,0h-5" transform="translate(0,623.25)" style="stroke: rgb(68, 68, 68); stroke-opacity: 1; stroke-width: 1px;"/><path class="ytick ticks crisp" d="M77,0h-5" transform="translate(0,507.16)" style="stroke: rgb(68, 68, 68); stroke-opacity: 1; stroke-width: 1px;"/><path class="ytick ticks crisp" d="M77,0h-5" transform="translate(0,391.08)" style="stroke: rgb(68, 68, 68); stroke-opacity: 1; stroke-width: 1px;"/><path class="ytick ticks crisp" d="M77,0h-5" transform="translate(0,275)" style="stroke: rgb(68, 68, 68); stroke-opacity: 1; stroke-width: 1px;"/><path class="ytick ticks crisp" d="M77,0h-5" transform="translate(0,158.91)" style="stroke: rgb(68, 68, 68); stroke-opacity: 1; stroke-width: 1px;"/><g class="ytick"><text text-anchor="end" x="69.2" y="4.8999999999999995" transform="translate(0,623.25)" style="font-family: Arial; font-size: 14px; fill: rgb(0, 0, 0); fill-opacity: 1; white-space: pre;">−16</text></g><g class="ytick"><text text-anchor="end" x="69.2" y="4.8999999999999995" transform="translate(0,507.16)" style="font-family: Arial; font-size: 14px; fill: rgb(0, 0, 0); fill-opacity: 1; white-space: pre;">−14</text></g><g class="ytick"><text text-anchor="end" x="69.2" y="4.8999999999999995" transform="translate(0,391.08)" style="font-family: Arial; font-size: 14px; fill: rgb(0, 0, 0); fill-opacity: 1; white-space: pre;">−12</text></g><g class="ytick"><text text-anchor="end" x="69.2" y="4.8999999999999995" transform="translate(0,275)" style="font-family: Arial; font-size: 14px; fill: rgb(0, 0, 0); fill-opacity: 1; white-space: pre;">−10</text></g><g class="ytick"><text text-anchor="end" x="69.2" y="4.8999999999999995" transform="translate(0,158.91)" style="font-family: Arial; font-size: 14px; fill: rgb(0, 0, 0); fill-opacity: 1; white-space: pre;">−8</text></g></g><g class="overaxes-below"/><g class="plot" transform="translate(79,60)" clip-path="url('#clip88c493xyplot')"><g class="scatterlayer mlayer"><g class="trace scatter trace6b0b0d" style="stroke-miterlimit: 2; opacity: 1;"><g class="fills"/><g class="errorbars"/><g class="lines"><path class="js-line" d="M0,674L0,636.97L2.08,634.13L5.7,631.28L7.44,628.44L10.43,622.75L11.83,619.91L18.56,600L19.29,597.15L32.5,548.75L33.41,545.9L35.83,540.21L37.34,537.37L40.46,531.68L45.49,528.78L41.03,514.56L40.37,511.72L36.01,497.5L35.2,494.65L30.14,477.59L34.54,474.69L39.41,460.47L39.77,457.62L40.73,454.78L40.9,451.93L40.79,449.09L39.81,446.25L38.67,440.56L38.6,437.71L40.09,426.34L40.71,423.49L45.33,409.22L46.46,406.37L50.82,397.84L52.44,394.99L54.41,392.15L60.18,389.31L62.44,386.46L74.01,383.62L66.58,380.77L66.38,377.93L67.22,375.09L69.19,372.24L67.86,369.4L67.66,366.55L67.61,360.81L68.64,357.96L68.79,352.28L67.81,349.43L67.02,343.74L69.04,340.9L68.3,338.06L66.08,335.21L71.16,332.37L65.15,329.52L62.83,326.68L64.56,323.84L59.78,320.99L59.49,318.15L55.79,315.3L54.76,312.46L53.13,309.62L50.18,306.71L54.22,295.34L52.94,292.49L50.52,289.65L50.62,286.81L51.36,281.12L56.97,278.27L55.79,275.43L63.03,272.59L61.9,269.74L63.72,266.9L64.56,264.05L68.45,261.21L68.74,258.37L71.21,255.52L76.92,249.78L73.86,246.93L72.34,244.09L75.79,241.24L73.27,238.4L76.62,235.56L77.16,232.71L83.81,229.87L86.62,224.18L90.76,221.34L92.08,218.49L92.48,215.65L90.8,212.8L95.88,209.96L97.3,204.27L95.48,201.43L95.58,198.52L98.49,195.68L100.95,192.84L101.83,189.99L103.61,184.3L106.12,181.46L109.86,178.62L112.27,175.77L116.95,172.93L116.46,170.08L121.73,167.24L133.15,164.4L148.22,161.55L150.09,158.71L134.58,155.86L110.01,153.02L119.46,150.18L133.55,147.33L159.99,144.49L136.5,141.59L100.26,133.05L93.46,130.21L81.94,124.52L77.07,121.68L70.86,115.99L68.89,113.15L65.84,107.46L63.33,104.61L61.65,101.77L61.9,98.93L62.98,93.24L66.48,90.39L70.22,87.49L69.68,84.65L68.69,81.8L68.55,78.96L65.89,64.74L64.61,61.9L64.51,56.21L64.51,53.36L62.39,50.52L66.77,47.68L70.27,44.83L69.48,41.99L60.67,39.14L57.91,36.3L60.18,33.46L65.05,30.55L71.01,27.71L80.81,24.86L84.11,22.02L91.1,19.18L111.29,13.49L128.77,10.64L187.52,4.96L161.47,2.11L141.87,-0.73L127.69,-3.58L84.45,-14.95L86.67,-17.8L105.48,-20.64L106.07,-23.54L138.82,-26.39L162.6,-29.23L173.09,-32.07L144.82,-34.92L121.09,-37.76L115.28,-40.61L132.22,-46.29L146.35,-49.14L204.95,-54.83L246.36,-57.67L213.03,-60.51L218.25,-63.36L196.18,-66.2L213.81,-69.05L178.7,-71.89L181.21,-74.73L191.31,-80.48L193.38,-83.32L199.43,-86.17L155.46,-89.01L148.81,-91.86L135.32,-94.7L131.77,-97.54L119.61,-100.39L82.88,-108.92L76.82,-111.76L57.66,-117.45L46,-120.3L24.94,-125.98L21,-128.83L20.39,-131.67L6.05,-134.57L0.71,-140.26L0,-143.11L0,-180.08" style="vector-effect: non-scaling-stroke; fill: none; stroke: rgb(0, 0, 0); stroke-opacity: 1; stroke-width: 2px; opacity: 1;"/></g><g class="points"/><g class="text"/></g><g class="trace scatter trace9b90be" style="stroke-miterlimit: 2; opacity: 1;"><g class="fills"/><g class="errorbars"/><g class="lines"><path class="js-line" d="M0,58.04L271,58.04" style="vector-effect: non-scaling-stroke; fill: none; stroke: rgb(0, 0, 0); stroke-opacity: 1; stroke-width: 2px; opacity: 1; stroke-dasharray: 9px, 9px;"/></g><g class="points"/><g class="text"/></g><g class="trace scatter trace77c285" style="stroke-miterlimit: 2;"><g class="fills"><g><path class="js-fill" d="M0,-180.08L0,674L0,674L0.73,511.72L0.78,508.87L1.58,423.49L1.59,420.65L2.63,380.77L2.81,377.93L6.5,335.21L7.62,332.37L6.52,326.68L6.88,323.84L6.26,318.15L5.97,315.3L6.1,281.12L6.76,278.27L6.38,275.43L6.91,272.59L7.16,264.05L7.59,261.21L9.99,232.71L10.49,229.87L12.27,218.49L12.78,215.65L13.89,209.96L14.3,207.11L16.41,195.68L17.39,192.84L20.77,181.46L22.06,178.62L24.88,172.93L25.11,170.08L26.71,167.24L30.02,164.4L37.52,158.71L35.66,155.86L29.63,153.02L34.37,150.18L40.56,147.33L51.85,144.49L42.88,141.59L39,138.74L31.99,133.05L30.23,130.21L25.65,121.68L24.72,118.83L23.71,113.15L23.52,110.3L22.68,104.61L22.27,101.77L23.82,93.24L25.82,90.39L27.85,87.49L27.65,84.65L27,76.12L26.96,73.27L26.12,64.74L25.5,61.9L23.97,53.36L22.43,50.52L24.33,44.83L23.18,41.99L19.39,39.14L18.37,36.3L19.1,33.46L20.68,30.55L23.05,27.71L27.24,24.86L29,22.02L32.09,19.18L40.64,13.49L46.73,10.64L64.02,4.96L56.93,2.11L40.56,-9.26L35.83,-12.11L29.54,-14.95L31.33,-17.8L37.69,-20.64L41.4,-23.54L68.35,-29.23L75.24,-32.07L57.07,-37.76L56.33,-40.61L67.07,-46.29L75.59,-49.14L90.71,-51.98L109.96,-54.83L134.14,-57.67L117.35,-60.51L123.55,-63.36L118.33,-66.2L135.91,-69.05L112.37,-71.89L119.27,-77.58L123.7,-80.48L125.37,-83.32L130.89,-86.17L88.44,-89.01L78.84,-91.86L57.76,-97.54L51.41,-100.39L31.51,-108.92L28.05,-111.76L10.57,-128.83L10.3,-131.67L0.87,-137.42L0.28,-140.26L0,-168.7L0,-171.55L0,-180.08" style="fill: rgb(255, 0, 0); fill-opacity: 0.5; stroke-width: 0;"/></g></g><g class="errorbars"/><g class="lines"><path class="js-line" d="M0,674L0.73,511.72L0.78,508.87L1.58,423.49L1.59,420.65L2.63,380.77L2.81,377.93L6.5,335.21L7.62,332.37L6.52,326.68L6.88,323.84L6.26,318.15L5.97,315.3L6.1,281.12L6.76,278.27L6.38,275.43L6.91,272.59L7.16,264.05L7.59,261.21L9.99,232.71L10.49,229.87L12.27,218.49L12.78,215.65L13.89,209.96L14.3,207.11L16.41,195.68L17.39,192.84L20.77,181.46L22.06,178.62L24.88,172.93L25.11,170.08L26.71,167.24L30.02,164.4L37.52,158.71L35.66,155.86L29.63,153.02L34.37,150.18L40.56,147.33L51.85,144.49L42.88,141.59L39,138.74L31.99,133.05L30.23,130.21L25.65,121.68L24.72,118.83L23.71,113.15L23.52,110.3L22.68,104.61L22.27,101.77L23.82,93.24L25.82,90.39L27.85,87.49L27.65,84.65L27,76.12L26.96,73.27L26.12,64.74L25.5,61.9L23.97,53.36L22.43,50.52L24.33,44.83L23.18,41.99L19.39,39.14L18.37,36.3L19.1,33.46L20.68,30.55L23.05,27.71L27.24,24.86L29,22.02L32.09,19.18L40.64,13.49L46.73,10.64L64.02,4.96L56.93,2.11L40.56,-9.26L35.83,-12.11L29.54,-14.95L31.33,-17.8L37.69,-20.64L41.4,-23.54L68.35,-29.23L75.24,-32.07L57.07,-37.76L56.33,-40.61L67.07,-46.29L75.59,-49.14L90.71,-51.98L109.96,-54.83L134.14,-57.67L117.35,-60.51L123.55,-63.36L118.33,-66.2L135.91,-69.05L112.37,-71.89L119.27,-77.58L123.7,-80.48L125.37,-83.32L130.89,-86.17L88.44,-89.01L78.84,-91.86L57.76,-97.54L51.41,-100.39L31.51,-108.92L28.05,-111.76L10.57,-128.83L10.3,-131.67L0.87,-137.42L0.28,-140.26L0,-168.7L0,-171.55L0,-180.08" style="vector-effect: non-scaling-stroke; fill: none; stroke: rgb(255, 0, 0); stroke-opacity: 1; stroke-width: 2px; opacity: 1;"/></g><g class="points"/><g class="text"/></g></g></g><g class="overplot"/><path class="xlines-above"/><path class="ylines-above"/><g class="overlines-above"/><g class="xaxislayer-above"/><g class="yaxislayer-above"/><g class="overaxes-above"/></g></g><g class="polarlayer"/><g class="ternarylayer"/><g class="geolayer"/><g class="funnelarealayer"/><g class="pielayer"/><g class="treemaplayer"/><g class="sunburstlayer"/><g class="glimages"/><defs id="topdefs-88c493"><g class="clips"/></defs><g class="layer-above"><g class="imagelayer"/><g class="shapelayer"/></g><g class="infolayer"><g class="g-gtitle"><text class="gtitle" x="200" y="30" text-anchor="middle" dy="0em" style="font-family: Arial; font-size: 20px; fill: rgb(0, 0, 0); opacity: 1; font-weight: normal; white-space: pre;">Sc <tspan style="font-style:italic">3d</tspan> Projected DOS (AuCu​<tspan style="font-size:70%" dy="0.3em">3</tspan><tspan dy="-0.21em">​</tspan>-type ScAl​<tspan style="font-size:70%" dy="0.3em">3</tspan><tspan dy="-0.21em">​</tspan>)</text></g><g class="g-xtitle"><text class="xtitle" x="214.5" y="787.7125" text-anchor="middle" style="font-family: Arial; font-size: 17px; fill: rgb(0, 0, 0); opacity: 1; font-weight: normal; white-space: pre;">states per eV</text></g><g class="g-ytitle" transform="translate(3.712890625,0)"><text class="ytitle" transform="rotate(-90,12.287499999999994,397)" x="12.287499999999994" y="397" text-anchor="middle" style="font-family: Arial; font-size: 17px; fill: rgb(0, 0, 0); opacity: 1; font-weight: normal; white-space: pre;">Energy (eV)</text></g></g></svg>