<svg class="main-svg" xmlns="http://www.w3.org/2000/svg" xmlns:xlink="http://www.w3.org/1999/xlink" width="400" height="800" style="" viewBox="0 0 400 800"><rect x="0" y="0" width="400" height="800" style="fill: rgb(255, 255, 255); fill-opacity: 1;"/><defs id="defs-7ac880"><g class="clips"><clipPath id="clip7ac880xyplot" class="plotclip"><rect width="217" height="690"/></clipPath><clipPath class="axesclip" id="clip7ac880x"><rect x="52" y="0" width="217" height="800"/></clipPath><clipPath class="axesclip" id="clip7ac880y"><rect x="0" y="60" width="400" height="690"/></clipPath><clipPath class="axesclip" id="clip7ac880xy"><rect x="52" y="60" width="217" height="690"/></clipPath></g><g class="gradients"/></defs><g class="bglayer"/><g class="layer-below"><g class="imagelayer"/><g class="shapelayer"/></g><g class="cartesianlayer"><g class="subplot xy"><g class="layer-subplot"><g class="shapelayer"/><g class="imagelayer"/></g><g class="gridlayer"><g class="x"/><g class="y"/></g><g class="zerolinelayer"/><path class="xlines-below crisp" d="M50,751H271M50,59H271" style="fill: none; stroke-width: 2px; stroke: rgb(0, 0, 0); stroke-opacity: 1;"/><path class="ylines-below crisp" d="M51,60V750M270,60V750" style="fill: none; stroke-width: 2px; stroke: rgb(0, 0, 0); stroke-opacity: 1;"/><g class="overlines-below"/><g class="xaxislayer-below"><path class="xtick ticks crisp" d="M0,752v5" transform="translate(52,0)" style="stroke: rgb(68, 68, 68); stroke-opacity: 1; stroke-width: 1px;"/><path class="xtick ticks crisp" d="M0,752v5" transform="translate(106.25,0)" style="stroke: rgb(68, 68, 68); stroke-opacity: 1; stroke-width: 1px;"/><path class="xtick ticks crisp" d="M0,752v5" transform="translate(160.5,0)" style="stroke: rgb(68, 68, 68); stroke-opacity: 1; stroke-width: 1px;"/><path class="xtick ticks crisp" d="M0,752v5" transform="translate(214.75,0)" style="stroke: rgb(68, 68, 68); stroke-opacity: 1; stroke-width: 1px;"/><path class="xtick ticks crisp" d="M0,752v5" transform="translate(269,0)" style="stroke: rgb(68, 68, 68); stroke-opacity: 1; stroke-width: 1px;"/><g class="xtick"><text text-anchor="middle" x="0" y="773.8" transform="translate(52,0)" style="font-family: Arial; font-size: 14px; fill: rgb(0, 0, 0); fill-opacity: 1; white-space: pre;">0</text></g><g class="xtick"><text text-anchor="middle" x="0" y="773.8" transform="translate(106.25,0)" style="font-family: Arial; font-size: 14px; fill: rgb(0, 0, 0); fill-opacity: 1; white-space: pre;">1</text></g><g class="xtick"><text text-anchor="middle" x="0" y="773.8" transform="translate(160.5,0)" style="font-family: Arial; font-size: 14px; fill: rgb(0, 0, 0); fill-opacity: 1; white-space: pre;">2</text></g><g class="xtick"><text text-anchor="middle" x="0" y="773.8" transform="translate(214.75,0)" style="font-family: Arial; font-size: 14px; fill: rgb(0, 0, 0); fill-opacity: 1; white-space: pre;">3</text></g><g class="xtick"><text text-anchor="middle" x="0" y="773.8" transform="translate(269,0)" style="font-family: Arial; font-size: 14px; fill: rgb(0, 0, 0); fill-opacity: 1; white-space: pre;">4</text></g></g><g class="yaxislayer-below"><path class="ytick ticks crisp" d="M50,0h-5" transform="translate(0,681)" style="stroke: rgb(68, 68, 68); stroke-opacity: 1; stroke-width: 1px;"/><path class="ytick ticks crisp" d="M50,0h-5" transform="translate(0,543)" style="stroke: rgb(68, 68, 68); stroke-opacity: 1; stroke-width: 1px;"/><path class="ytick ticks crisp" d="M50,0h-5" transform="translate(0,405)" style="stroke: rgb(68, 68, 68); stroke-opacity: 1; stroke-width: 1px;"/><path class="ytick ticks crisp" d="M50,0h-5" transform="translate(0,267)" style="stroke: rgb(68, 68, 68); stroke-opacity: 1; stroke-width: 1px;"/><path class="ytick ticks crisp" d="M50,0h-5" transform="translate(0,129)" style="stroke: rgb(68, 68, 68); stroke-opacity: 1; stroke-width: 1px;"/><g class="ytick"><text text-anchor="end" x="42.2" y="4.8999999999999995" transform="translate(0,681)" style="font-family: Arial; font-size: 14px; fill: rgb(0, 0, 0); fill-opacity: 1; white-space: pre;">−16</text></g><g class="ytick"><text text-anchor="end" x="42.2" y="4.8999999999999995" transform="translate(0,543)" style="font-family: Arial; font-size: 14px; fill: rgb(0, 0, 0); fill-opacity: 1; white-space: pre;">−14</text></g><g class="ytick"><text text-anchor="end" x="42.2" y="4.8999999999999995" transform="translate(0,405)" style="font-family: Arial; font-size: 14px; fill: rgb(0, 0, 0); fill-opacity: 1; white-space: pre;">−12</text></g><g class="ytick"><text text-anchor="end" x="42.2" y="4.8999999999999995" transform="translate(0,267)" style="font-family: Arial; font-size: 14px; fill: rgb(0, 0, 0); fill-opacity: 1; white-space: pre;">−10</text></g><g class="ytick"><text text-anchor="end" x="42.2" y="4.8999999999999995" transform="translate(0,129)" style="font-family: Arial; font-size: 14px; fill: rgb(0, 0, 0); fill-opacity: 1; white-space: pre;">−8</text></g></g><g class="overaxes-below"/><g class="plot" transform="translate(52,60)" clip-path="url('#clip7ac880xyplot')"><g class="scatterlayer mlayer"><g class="trace scatter trace6628ca" style="stroke-miterlimit: 2; opacity: 1;"><g class="fills"/><g class="errorbars"/><g class="lines"><path class="js-line" d="M0,752.67L0,708.64L2.3,705.26L6.28,701.88L8.2,698.5L11.5,691.74L13.03,688.36L20.45,664.69L21.25,661.31L35.81,603.76L36.8,600.38L39.47,593.62L41.13,590.24L44.57,583.48L50.11,580.03L45.21,563.12L44.47,559.74L39.67,542.84L38.78,539.46L33.2,519.17L38.06,515.72L42.61,502.2L43.42,498.81L44.94,485.29L43.86,481.91L42.6,475.15L42.52,471.77L43.56,461.62L44.16,458.24L47.69,444.65L48.76,441.27L54.21,427.74L55.99,424.36L59.95,417.6L66.29,414.22L68.79,410.84L81.54,407.46L73.35,404.08L73.13,400.7L74.05,397.32L76.22,393.93L74.76,390.55L74.54,387.17L74.49,380.34L75.62,376.96L75.79,370.2L74.7,366.82L73.83,360.06L76.06,356.67L75.24,353.29L72.8,349.91L78.39,346.53L71.77,343.15L69.22,339.77L71.12,336.39L65.86,333.01L65.53,329.63L61.47,326.25L60.33,322.86L58.54,319.48L55.28,316.03L59.73,302.51L58.32,299.13L55.66,295.75L55.77,292.37L56.58,285.6L62.77,282.22L61.47,278.84L69.44,275.46L68.19,272.08L70.2,268.7L71.12,265.32L75.41,261.94L75.73,258.56L78.45,255.18L84.74,248.34L81.38,244.96L79.69,241.58L83.49,238.2L80.72,234.82L84.41,231.44L85.01,228.06L92.33,224.68L95.43,217.92L99.98,214.53L101.45,211.15L101.88,207.77L100.04,204.39L105.62,201.01L107.2,194.25L105.19,190.87L105.3,187.42L108.5,184.04L111.21,180.66L112.19,177.27L114.14,170.51L116.91,167.13L121.03,163.75L123.69,160.37L128.84,156.99L128.3,153.61L134.11,150.23L146.69,146.85L163.29,143.46L165.35,140.08L148.27,136.7L121.19,133.32L131.61,129.94L147.13,126.56L176.26,123.18L150.38,119.73L122.17,112.97L110.45,109.59L96.08,102.82L90.27,99.44L84.9,96.06L81.05,92.68L75.9,85.92L74.11,82.54L72.53,79.16L69.77,75.78L67.92,72.39L68.19,69.01L69.39,62.25L73.24,58.87L77.36,55.42L76.76,52.04L75.68,48.66L75.52,45.28L74.7,38.52L74.38,35.13L70.85,21.61L71.07,18.23L71.07,14.85L68.73,11.47L77.41,4.71L76.55,1.32L66.84,-2.06L63.8,-5.44L66.29,-8.82L71.66,-12.27L78.23,-15.65L89.02,-19.03L92.66,-22.41L100.36,-25.79L122.6,-32.55L141.86,-35.94L206.58,-42.7L177.89,-46.08L140.67,-52.84L129.06,-56.22L103.4,-62.98L93.04,-66.36L95.48,-69.75L116.2,-73.13L116.85,-76.58L152.93,-79.96L179.13,-83.34L190.69,-86.72L133.4,-93.48L127,-96.86L145.66,-103.62L161.23,-107.01L225.79,-113.77L271.41,-117.15L234.69,-120.53L240.44,-123.91L216.13,-127.29L235.55,-130.67L196.87,-134.05L199.64,-137.43L210.76,-144.27L213.04,-147.65L219.71,-151.03L171.27,-154.41L163.94,-157.79L149.08,-161.17L145.17,-164.55L131.77,-167.93L101.34,-174.69L91.3,-178.08L75.73,-184.84L63.53,-188.22L27.48,-198.36L23.14,-201.74L22.46,-205.12L6.66,-208.57L0.78,-215.34L0,-218.72L0,-262.67" style="vector-effect: non-scaling-stroke; fill: none; stroke: rgb(0, 0, 0); stroke-opacity: 1; stroke-width: 2px; opacity: 1;"/></g><g class="points"/><g class="text"/></g><g class="trace scatter tracedbf860" style="stroke-miterlimit: 2; opacity: 1;"><g class="fills"/><g class="errorbars"/><g class="lines"><path class="js-line" d="M0,20.41L217,20.41" style="vector-effect: non-scaling-stroke; fill: none; stroke: rgb(0, 0, 0); stroke-opacity: 1; stroke-width: 2px; opacity: 1; stroke-dasharray: 9px, 9px;"/></g><g class="points"/><g class="text"/></g></g></g><g class="overplot"/><path class="xlines-above"/><path class="ylines-above"/><g class="overlines-above"/><g class="xaxislayer-above"/><g class="yaxislayer-above"/><g class="overaxes-above"/></g></g><g class="polarlayer"/><g class="ternarylayer"/><g class="geolayer"/><g class="funnelarealayer"/><g class="pielayer"/><g class="treemaplayer"/><g class="sunburstlayer"/><g class="glimages"/><defs id="topdefs-7ac880"><g class="clips"/><clipPath id="legend7ac880"><rect width="115" height="32" x="0" y="0"/></clipPath></defs><g class="layer-above"><g class="imagelayer"/><g class="shapelayer"/></g><g class="infolayer"><g class="legend" pointer-events="all" transform="translate(273.34000000000003,60)"><rect class="bg" shape-rendering="crispEdges" width="115" height="32" x="0" y="0" style="stroke: rgb(68, 68, 68); stroke-opacity: 1; fill: rgb(255, 255, 255); fill-opacity: 1; stroke-width: 0px;"/><g class="scrollbox" transform="" clip-path="url('#legend7ac880')"><g class="groups"><g class="traces" transform="translate(0,15.6)" style="opacity: 1;"><text class="legendtext" text-anchor="start" x="40" y="5.46" style="font-family: Arial; font-size: 14px; fill: rgb(0, 0, 0); fill-opacity: 1; white-space: pre;">Total DOS</text><g class="layers" style="opacity: 1;"><g class="legendfill"/><g class="legendlines"><path class="js-line" d="M5,0h30" style="fill: none; stroke: rgb(0, 0, 0); stroke-opacity: 1; stroke-width: 2px;"/></g><g class="legendsymbols"><g class="legendpoints"/></g></g><rect class="legendtoggle" x="0" y="-10.6" width="110" height="21.2" style="fill: rgb(0, 0, 0); fill-opacity: 0;"/></g></g></g><rect class="scrollbar" rx="20" ry="3" width="0" height="0" x="0" y="0" style="fill: rgb(128, 139, 164); fill-opacity: 1;"/></g><g class="g-gtitle"/><g class="g-xtitle"/><g class="g-ytitle"/></g></svg>