<svg class="main-svg" xmlns="http://www.w3.org/2000/svg" xmlns:xlink="http://www.w3.org/1999/xlink" width="400" height="800" style="" viewBox="0 0 400 800"><rect x="0" y="0" width="400" height="800" style="fill: rgb(255, 255, 255); fill-opacity: 1;"/><defs id="defs-d0638b"><g class="clips"><clipPath id="clipd0638bxyplot" class="plotclip"><rect width="190" height="690"/></clipPath><clipPath class="axesclip" id="clipd0638bx"><rect x="79" y="0" width="190" height="800"/></clipPath><clipPath class="axesclip" id="clipd0638by"><rect x="0" y="60" width="400" height="690"/></clipPath><clipPath class="axesclip" id="clipd0638bxy"><rect x="79" y="60" width="190" height="690"/></clipPath></g><g class="gradients"/></defs><g class="bglayer"/><g class="layer-below"><g class="imagelayer"/><g class="shapelayer"/></g><g class="cartesianlayer"><g class="subplot xy"><g class="layer-subplot"><g class="shapelayer"/><g class="imagelayer"/></g><g class="gridlayer"><g class="x"/><g class="y"/></g><g class="zerolinelayer"><path class="xzl zl crisp" transform="translate(79,0)" d="M0,60v690" style="stroke: rgb(255, 255, 255); stroke-opacity: 1; stroke-width: 2px;"/><path class="yzl zl crisp" transform="translate(0,122.53999999999999)" d="M79,0h190" style="stroke: rgb(255, 255, 255); stroke-opacity: 1; stroke-width: 2px;"/></g><path class="xlines-below crisp" d="M77,751H271M77,59H271" style="fill: none; stroke-width: 2px; stroke: rgb(0, 0, 0); stroke-opacity: 1;"/><path class="ylines-below crisp" d="M78,60V750M270,60V750" style="fill: none; stroke-width: 2px; stroke: rgb(0, 0, 0); stroke-opacity: 1;"/><g class="overlines-below"/><g class="xaxislayer-below"/><g class="yaxislayer-below"><path class="ytick ticks crisp" d="M77,0h-5" transform="translate(0,747.91)" style="stroke: rgb(68, 68, 68); stroke-opacity: 1; stroke-width: 1px;"/><path class="ytick ticks crisp" d="M77,0h-5" transform="translate(0,622.83)" style="stroke: rgb(68, 68, 68); stroke-opacity: 1; stroke-width: 1px;"/><path class="ytick ticks crisp" d="M77,0h-5" transform="translate(0,497.76)" style="stroke: rgb(68, 68, 68); stroke-opacity: 1; stroke-width: 1px;"/><path class="ytick ticks crisp" d="M77,0h-5" transform="translate(0,372.69)" style="stroke: rgb(68, 68, 68); stroke-opacity: 1; stroke-width: 1px;"/><path class="ytick ticks crisp" d="M77,0h-5" transform="translate(0,247.61)" style="stroke: rgb(68, 68, 68); stroke-opacity: 1; stroke-width: 1px;"/><path class="ytick ticks crisp" d="M77,0h-5" transform="translate(0,122.53999999999999)" style="stroke: rgb(68, 68, 68); stroke-opacity: 1; stroke-width: 1px;"/><g class="ytick"><text text-anchor="end" x="69.2" y="4.8999999999999995" transform="translate(0,747.91)" style="font-family: Arial; font-size: 14px; fill: rgb(0, 0, 0); fill-opacity: 1; white-space: pre;">−10</text></g><g class="ytick"><text text-anchor="end" x="69.2" y="4.8999999999999995" transform="translate(0,622.83)" style="font-family: Arial; font-size: 14px; fill: rgb(0, 0, 0); fill-opacity: 1; white-space: pre;">−8</text></g><g class="ytick"><text text-anchor="end" x="69.2" y="4.8999999999999995" transform="translate(0,497.76)" style="font-family: Arial; font-size: 14px; fill: rgb(0, 0, 0); fill-opacity: 1; white-space: pre;">−6</text></g><g class="ytick"><text text-anchor="end" x="69.2" y="4.8999999999999995" transform="translate(0,372.69)" style="font-family: Arial; font-size: 14px; fill: rgb(0, 0, 0); fill-opacity: 1; white-space: pre;">−4</text></g><g class="ytick"><text text-anchor="end" x="69.2" y="4.8999999999999995" transform="translate(0,247.61)" style="font-family: Arial; font-size: 14px; fill: rgb(0, 0, 0); fill-opacity: 1; white-space: pre;">−2</text></g><g class="ytick"><text text-anchor="end" x="69.2" y="4.8999999999999995" transform="translate(0,122.53999999999999)" style="font-family: Arial; font-size: 14px; fill: rgb(0, 0, 0); fill-opacity: 1; white-space: pre;">0</text></g></g><g class="overaxes-below"/><g class="plot" transform="translate(79,60)" clip-path="url('#clipd0638bxyplot')"><g class="scatterlayer mlayer"><g class="trace scatter trace89887c" style="stroke-miterlimit: 2; opacity: 1;"><g class="fills"/><g class="errorbars"/><g class="lines"><path class="js-line" d="M0,690L2.93,686.86L4.22,683.73L7.83,668.04L8.4,664.9L11.5,642.94L11.52,639.8L13.48,627.25L13.86,624.12L15.51,614.7L16.31,611.57L16.47,605.29L15.99,602.16L16.06,595.88L16.63,592.74L18.68,586.47L18.89,583.33L21.51,577.06L20.66,573.92L21.84,567.64L20.57,564.51L19.12,558.23L17.5,555.1L15.47,551.96L15.52,548.82L15.97,545.68L17.97,542.55L20.26,539.41L24.4,536.27L25.67,533.13L24.14,530L23.9,526.86L22.9,523.72L22.25,511.17L22.51,508.04L24.05,504.9L24.49,501.76L24.34,495.49L26.01,492.35L27.42,489.21L26.94,486.08L26.4,482.94L27.36,479.8L28.81,476.66L29.29,473.53L27.24,470.39L27.61,467.25L32.29,460.98L32.96,457.84L31.51,454.7L33.59,451.56L35.43,445.29L35.73,442.15L37.67,439.02L37.57,435.88L37.15,432.74L38.18,429.6L38.77,426.47L40.42,423.33L37.58,417.05L39.01,413.92L40.7,410.78L39.9,407.64L37.64,404.5L40.41,401.37L42.64,398.23L46.38,395.09L40.15,385.68L44.78,382.54L46.33,376.27L48.21,373.13L49.71,369.99L52.6,366.86L50.53,363.72L49.96,360.58L52.91,351.17L51.6,348.03L52.1,344.9L50.68,341.76L50.44,338.62L45.1,335.48L47.2,332.35L47.24,329.21L40,322.93L32.06,319.8L22.32,316.66L23.98,313.52L32.99,310.39L35.4,307.25L36.54,304.11L36.81,300.97L35.36,297.84L30.67,294.7L34.01,291.56L51.25,288.42L63.81,285.29L73.01,282.15L61.6,275.87L104.3,272.74L102.6,269.6L91.32,266.46L79.99,263.33L89.3,260.19L122.76,253.91L132.55,250.78L104.96,247.64L60.18,244.5L120.91,238.23L126.79,235.09L137.02,231.95L164.13,228.81L172.73,225.68L168.92,222.54L140.73,219.4L132.55,216.27L138.67,213.13L146.85,209.99L114.6,206.85L115.47,203.72L125,200.58L147.54,197.44L150.1,194.3L143.72,191.17L132.92,188.03L127.49,184.89L134.16,181.75L81.71,178.62L63.19,175.48L66.27,172.34L59.43,169.21L60.78,166.07L52.03,162.93L53.29,159.79L79.55,153.52L68.96,150.38L55.6,144.11L55.2,140.97L52.26,137.83L57.12,134.7L80.82,131.56L76.67,128.42L44.49,119.01L42.3,115.87L37.55,112.73L39.54,109.6L36.16,106.46L28.41,103.32L22.87,100.19L19.73,97.05L20.46,93.91L42.95,90.77L64.95,87.64L70.15,84.5L62.74,81.36L46.89,78.22L51.99,75.09L47.93,71.95L44.47,68.81L45.38,65.67L47.64,62.54L43.68,59.4L36.93,53.13L36.79,49.99L40.61,43.71L39.23,40.58L37.67,37.44L44.54,34.3L43.21,31.16L40.55,28.03L44.3,24.89L38.75,21.75L33.92,18.61L32.85,15.48L31.8,12.34L31.66,9.2L30.12,6.07L32.05,2.93L32.88,-0.21L36.61,-3.35L36.36,-6.48L33.31,-9.62L31.06,-15.9L35.53,-19.03L73.32,-31.58L64.68,-34.72L66.44,-37.86L62.7,-40.99L63.66,-44.13L63.29,-47.27L47.26,-66.09L46.97,-69.23L52.46,-75.5L48.2,-78.64L51.69,-84.92L47.59,-88.05L47.37,-94.33L48.25,-97.47L50.8,-110.02L51.81,-113.15L54.46,-116.29L53.96,-119.43L53.16,-122.56L55.16,-125.7L55.07,-131.98L54.58,-135.11L53.76,-144.53L55.53,-147.66L57.28,-157.08L57.11,-160.21L53.19,-166.49L53.56,-169.62L55.88,-185.31L56,-188.45L58.96,-194.72L56.41,-197.86L59.17,-201L56.32,-204.13L55.12,-207.27L57.21,-210.41L50.81,-216.68L54.39,-219.82L57.29,-226.1L57.15,-229.23L48.39,-251.19" style="vector-effect: non-scaling-stroke; fill: none; stroke: rgb(0, 0, 0); stroke-opacity: 1; stroke-width: 2px; opacity: 1;"/></g><g class="points"/><g class="text"/></g><g class="trace scatter trace1ef2eb" style="stroke-miterlimit: 2; opacity: 1;"><g class="fills"/><g class="errorbars"/><g class="lines"><path class="js-line" d="M0,62.54L190,62.54" style="vector-effect: non-scaling-stroke; fill: none; stroke: rgb(0, 0, 0); stroke-opacity: 1; stroke-width: 2px; opacity: 1; stroke-dasharray: 9px, 9px;"/></g><g class="points"/><g class="text"/></g><g class="trace scatter trace6a7387" style="stroke-miterlimit: 2;"><g class="fills"><g><path class="js-fill" d="M0,-251.19L0,690L0,690L0.74,514.31L0.78,511.17L2.27,454.7L2.55,451.56L6.06,404.5L6.83,401.37L8.68,391.96L8.45,388.82L8.53,385.68L9.99,382.54L12.08,373.13L12.84,369.99L14.09,366.86L14.1,363.72L15.39,357.44L16.16,354.31L17.23,351.17L17.36,348.03L18.26,344.9L18.37,341.76L18.77,338.62L16.87,335.48L17.62,329.21L16.02,326.07L15.11,322.93L11.83,319.8L8.07,316.66L8.56,313.52L12.18,310.39L12.69,307.25L13.64,300.97L13.26,297.84L11.77,294.7L14.09,291.56L29.01,285.29L34.13,282.15L30.35,275.87L54.29,272.74L53.59,269.6L48.1,266.46L42.62,263.33L49.72,260.19L82.52,250.78L65.77,247.64L38.52,244.5L61.81,241.36L81.41,238.23L86.5,235.09L94.89,231.95L117.08,228.81L127.26,225.68L127.82,222.54L109.75,219.4L103.34,216.27L108.41,213.13L116.47,209.99L91.16,206.85L90.05,203.72L95.24,200.58L112.89,197.44L115.37,194.3L109.54,191.17L100.08,188.03L98.95,184.89L106.8,181.75L59.76,178.62L43.17,175.48L40.85,172.34L34.51,169.21L34.16,166.07L28.5,162.93L28.37,159.79L39.31,153.52L31.28,150.38L26.38,147.24L23.73,144.11L25.6,140.97L24.38,137.83L26.87,134.7L39.93,131.56L35.74,128.42L28.19,125.28L21.92,122.15L17.59,119.01L16.34,115.87L14.22,112.73L14.62,109.6L13.09,106.46L7.19,100.19L6.13,97.05L6.39,93.91L14.85,90.77L24.05,87.64L25.43,84.5L22.18,81.36L16.07,78.22L17.16,75.09L15.15,71.95L13.75,68.81L13.84,65.67L14.47,62.54L13.09,59.4L11.05,53.13L10.88,49.99L11.94,43.71L11.46,40.58L11.23,37.44L14.23,34.3L14.25,31.16L12.85,28.03L13.49,24.89L11.37,21.75L9.57,18.61L9.18,15.48L8.14,6.07L8.7,2.93L8.72,-0.21L9.72,-3.35L9.92,-6.48L8.95,-9.62L8.06,-15.9L9.53,-19.03L20.8,-31.58L17.58,-34.72L17.5,-37.86L16.05,-40.99L13.76,-50.41L12.84,-53.54L8.24,-69.23L8.67,-72.37L8.15,-84.92L7.37,-88.05L5.19,-169.62L5.2,-172.76L4.07,-232.37L3.84,-235.51L3.35,-251.19" style="fill: rgb(0, 0, 0); fill-opacity: 0.5; stroke-width: 0;"/></g></g><g class="errorbars"/><g class="lines"><path class="js-line" d="M0,690L0.74,514.31L0.78,511.17L2.27,454.7L2.55,451.56L6.06,404.5L6.83,401.37L8.68,391.96L8.45,388.82L8.53,385.68L9.99,382.54L12.08,373.13L12.84,369.99L14.09,366.86L14.1,363.72L15.39,357.44L16.16,354.31L17.23,351.17L17.36,348.03L18.26,344.9L18.37,341.76L18.77,338.62L16.87,335.48L17.62,329.21L16.02,326.07L15.11,322.93L11.83,319.8L8.07,316.66L8.56,313.52L12.18,310.39L12.69,307.25L13.64,300.97L13.26,297.84L11.77,294.7L14.09,291.56L29.01,285.29L34.13,282.15L30.35,275.87L54.29,272.74L53.59,269.6L48.1,266.46L42.62,263.33L49.72,260.19L82.52,250.78L65.77,247.64L38.52,244.5L61.81,241.36L81.41,238.23L86.5,235.09L94.89,231.95L117.08,228.81L127.26,225.68L127.82,222.54L109.75,219.4L103.34,216.27L108.41,213.13L116.47,209.99L91.16,206.85L90.05,203.72L95.24,200.58L112.89,197.44L115.37,194.3L109.54,191.17L100.08,188.03L98.95,184.89L106.8,181.75L59.76,178.62L43.17,175.48L40.85,172.34L34.51,169.21L34.16,166.07L28.5,162.93L28.37,159.79L39.31,153.52L31.28,150.38L26.38,147.24L23.73,144.11L25.6,140.97L24.38,137.83L26.87,134.7L39.93,131.56L35.74,128.42L28.19,125.28L21.92,122.15L17.59,119.01L16.34,115.87L14.22,112.73L14.62,109.6L13.09,106.46L7.19,100.19L6.13,97.05L6.39,93.91L14.85,90.77L24.05,87.64L25.43,84.5L22.18,81.36L16.07,78.22L17.16,75.09L15.15,71.95L13.75,68.81L13.84,65.67L14.47,62.54L13.09,59.4L11.05,53.13L10.88,49.99L11.94,43.71L11.46,40.58L11.23,37.44L14.23,34.3L14.25,31.16L12.85,28.03L13.49,24.89L11.37,21.75L9.57,18.61L9.18,15.48L8.14,6.07L8.7,2.93L8.72,-0.21L9.72,-3.35L9.92,-6.48L8.95,-9.62L8.06,-15.9L9.53,-19.03L20.8,-31.58L17.58,-34.72L17.5,-37.86L16.05,-40.99L13.76,-50.41L12.84,-53.54L8.24,-69.23L8.67,-72.37L8.15,-84.92L7.37,-88.05L5.19,-169.62L5.2,-172.76L4.07,-232.37L3.84,-235.51L3.35,-251.19" style="vector-effect: non-scaling-stroke; fill: none; stroke: rgb(0, 0, 0); stroke-opacity: 1; stroke-width: 2px; opacity: 1;"/></g><g class="points"/><g class="text"/></g><g class="trace scatter traceafc46c" style="stroke-miterlimit: 2; opacity: 1;"><g class="fills"/><g class="errorbars"/><g class="lines"><path class="js-line" d="M0,95.13L190,95.13" style="vector-effect: non-scaling-stroke; fill: none; stroke: rgb(128, 128, 128); stroke-opacity: 1; stroke-width: 2px; opacity: 1; stroke-dasharray: 9px, 9px;"/></g><g class="points"/><g class="text"/></g></g></g><g class="overplot"/><path class="xlines-above"/><path class="ylines-above"/><g class="overlines-above"/><g class="xaxislayer-above"/><g class="yaxislayer-above"/><g class="overaxes-above"/></g></g><g class="polarlayer"/><g class="ternarylayer"/><g class="geolayer"/><g class="funnelarealayer"/><g class="pielayer"/><g class="treemaplayer"/><g class="sunburstlayer"/><g class="glimages"/><defs id="topdefs-d0638b"><g class="clips"/><clipPath id="legendd0638b"><rect width="115" height="74" x="0" y="0"/></clipPath></defs><g class="layer-above"><g class="imagelayer"/><g class="shapelayer"/></g><g class="infolayer"><g class="legend" pointer-events="all" transform="translate(272.8,60)"><rect class="bg" shape-rendering="crispEdges" width="115" height="74" x="0" y="0" style="stroke: rgb(68, 68, 68); stroke-opacity: 1; fill: rgb(255, 255, 255); fill-opacity: 1; stroke-width: 0px;"/><g class="scrollbox" transform="" clip-path="url('#legendd0638b')"><g class="groups"><g class="traces" transform="translate(0,15.6)" style="opacity: 1;"><text class="legendtext" text-anchor="start" x="40" y="5.46" style="font-family: Arial; font-size: 14px; fill: rgb(0, 0, 0); fill-opacity: 1; white-space: pre;">Total DOS</text><g class="layers" style="opacity: 1;"><g class="legendfill"/><g class="legendlines"><path class="js-line" d="M5,0h30" style="fill: none; stroke: rgb(0, 0, 0); stroke-opacity: 1; stroke-width: 2px;"/></g><g class="legendsymbols"><g class="legendpoints"/></g></g><rect class="legendtoggle" x="0" y="-10.6" width="110" height="21.2" style="fill: rgb(0, 0, 0); fill-opacity: 0;"/></g><g class="traces" transform="translate(0,36.8)" style="opacity: 1;"><text class="legendtext" text-anchor="start" x="40" y="5.46" style="font-family: Arial; font-size: 14px; fill: rgb(0, 0, 0); fill-opacity: 1; white-space: pre;">In d</text><g class="layers"><g class="legendfill"><path class="js-fill" d="M5,-2h30v6h-30z" style="stroke-width: 0; fill: rgb(0, 0, 0); fill-opacity: 0.5;"/></g><g class="legendlines"><path class="js-line" d="M5,-2h30" style="fill: none; stroke: rgb(0, 0, 0); stroke-opacity: 1; stroke-width: 2px;"/></g><g class="legendsymbols"><g class="legendpoints"/></g></g><rect class="legendtoggle" x="0" y="-10.6" width="110" height="21.2" style="fill: rgb(0, 0, 0); fill-opacity: 0;"/></g><g class="traces" transform="translate(0,58)" style="opacity: 1;"><text class="legendtext" text-anchor="start" x="40" y="5.46" style="font-family: Arial; font-size: 14px; fill: rgb(0, 0, 0); fill-opacity: 1; white-space: pre;">17 e​<tspan style="font-size:70%" dy="-0.6em">-</tspan><tspan dy="0.42em">​</tspan>/f.u.</text><g class="layers" style="opacity: 1;"><g class="legendfill"/><g class="legendlines"><path class="js-line" d="M5,0h30" style="fill: none; stroke: rgb(128, 128, 128); stroke-opacity: 1; stroke-dasharray: 9px, 9px; stroke-width: 2px;"/></g><g class="legendsymbols"><g class="legendpoints"/></g></g><rect class="legendtoggle" x="0" y="-10.6" width="110" height="21.2" style="fill: rgb(0, 0, 0); fill-opacity: 0;"/></g></g></g><rect class="scrollbar" rx="20" ry="3" width="0" height="0" x="0" y="0" style="fill: rgb(128, 139, 164); fill-opacity: 1;"/></g><g class="g-gtitle"/><g class="g-xtitle"/><g class="g-ytitle" transform="translate(3.712890625,0)"><text class="ytitle" transform="rotate(-90,12.287499999999994,405)" x="12.287499999999994" y="405" text-anchor="middle" style="font-family: Arial; font-size: 17px; fill: rgb(0, 0, 0); opacity: 1; font-weight: normal; white-space: pre;">E-<tspan style="font-style:italic">E</tspan>​<tspan style="font-size:70%" dy="0.3em">F</tspan><tspan dy="-0.21em">​</tspan> (eV)</text></g></g></svg>