<svg class="main-svg" xmlns="http://www.w3.org/2000/svg" xmlns:xlink="http://www.w3.org/1999/xlink" width="400" height="800" style="" viewBox="0 0 400 800"><rect x="0" y="0" width="400" height="800" style="fill: rgb(255, 255, 255); fill-opacity: 1;"/><defs id="defs-6ff61d"><g class="clips"><clipPath id="clip6ff61dxyplot" class="plotclip"><rect width="217" height="690"/></clipPath><clipPath class="axesclip" id="clip6ff61dx"><rect x="52" y="0" width="217" height="800"/></clipPath><clipPath class="axesclip" id="clip6ff61dy"><rect x="0" y="60" width="400" height="690"/></clipPath><clipPath class="axesclip" id="clip6ff61dxy"><rect x="52" y="60" width="217" height="690"/></clipPath></g><g class="gradients"/></defs><g class="bglayer"/><g class="layer-below"><g class="imagelayer"/><g class="shapelayer"/></g><g class="cartesianlayer"><g class="subplot xy"><g class="layer-subplot"><g class="shapelayer"/><g class="imagelayer"/></g><g class="gridlayer"><g class="x"/><g class="y"/></g><g class="zerolinelayer"><path class="xzl zl crisp" transform="translate(52,0)" d="M0,60v690" style="stroke: rgb(255, 255, 255); stroke-opacity: 1; stroke-width: 2px;"/><path class="yzl zl crisp" transform="translate(0,119.42)" d="M52,0h217" style="stroke: rgb(255, 255, 255); stroke-opacity: 1; stroke-width: 2px;"/></g><path class="xlines-below crisp" d="M50,751H271M50,59H271" style="fill: none; stroke-width: 2px; stroke: rgb(0, 0, 0); stroke-opacity: 1;"/><path class="ylines-below crisp" d="M51,60V750M270,60V750" style="fill: none; stroke-width: 2px; stroke: rgb(0, 0, 0); stroke-opacity: 1;"/><g class="overlines-below"/><g class="xaxislayer-below"><path class="xtick ticks crisp" d="M0,752v5" transform="translate(52,0)" style="stroke: rgb(68, 68, 68); stroke-opacity: 1; stroke-width: 1px;"/><path class="xtick ticks crisp" d="M0,752v5" transform="translate(130.86,0)" style="stroke: rgb(68, 68, 68); stroke-opacity: 1; stroke-width: 1px;"/><path class="xtick ticks crisp" d="M0,752v5" transform="translate(209.72,0)" style="stroke: rgb(68, 68, 68); stroke-opacity: 1; stroke-width: 1px;"/><g class="xtick"><text text-anchor="middle" x="0" y="773.8" transform="translate(52,0)" style="font-family: Arial; font-size: 14px; fill: rgb(0, 0, 0); fill-opacity: 1; white-space: pre;">0</text></g><g class="xtick"><text text-anchor="middle" x="0" y="773.8" transform="translate(130.86,0)" style="font-family: Arial; font-size: 14px; fill: rgb(0, 0, 0); fill-opacity: 1; white-space: pre;">2</text></g><g class="xtick"><text text-anchor="middle" x="0" y="773.8" transform="translate(209.72,0)" style="font-family: Arial; font-size: 14px; fill: rgb(0, 0, 0); fill-opacity: 1; white-space: pre;">4</text></g></g><g class="yaxislayer-below"><path class="ytick ticks crisp" d="M50,0h-5" transform="translate(0,713.61)" style="stroke: rgb(68, 68, 68); stroke-opacity: 1; stroke-width: 1px;"/><path class="ytick ticks crisp" d="M50,0h-5" transform="translate(0,594.77)" style="stroke: rgb(68, 68, 68); stroke-opacity: 1; stroke-width: 1px;"/><path class="ytick ticks crisp" d="M50,0h-5" transform="translate(0,475.93)" style="stroke: rgb(68, 68, 68); stroke-opacity: 1; stroke-width: 1px;"/><path class="ytick ticks crisp" d="M50,0h-5" transform="translate(0,357.1)" style="stroke: rgb(68, 68, 68); stroke-opacity: 1; stroke-width: 1px;"/><path class="ytick ticks crisp" d="M50,0h-5" transform="translate(0,238.26)" style="stroke: rgb(68, 68, 68); stroke-opacity: 1; stroke-width: 1px;"/><path class="ytick ticks crisp" d="M50,0h-5" transform="translate(0,119.42)" style="stroke: rgb(68, 68, 68); stroke-opacity: 1; stroke-width: 1px;"/><g class="ytick"><text text-anchor="end" x="42.2" y="4.8999999999999995" transform="translate(0,713.61)" style="font-family: Arial; font-size: 14px; fill: rgb(0, 0, 0); fill-opacity: 1; white-space: pre;">−10</text></g><g class="ytick"><text text-anchor="end" x="42.2" y="4.8999999999999995" transform="translate(0,594.77)" style="font-family: Arial; font-size: 14px; fill: rgb(0, 0, 0); fill-opacity: 1; white-space: pre;">−8</text></g><g class="ytick"><text text-anchor="end" x="42.2" y="4.8999999999999995" transform="translate(0,475.93)" style="font-family: Arial; font-size: 14px; fill: rgb(0, 0, 0); fill-opacity: 1; white-space: pre;">−6</text></g><g class="ytick"><text text-anchor="end" x="42.2" y="4.8999999999999995" transform="translate(0,357.1)" style="font-family: Arial; font-size: 14px; fill: rgb(0, 0, 0); fill-opacity: 1; white-space: pre;">−4</text></g><g class="ytick"><text text-anchor="end" x="42.2" y="4.8999999999999995" transform="translate(0,238.26)" style="font-family: Arial; font-size: 14px; fill: rgb(0, 0, 0); fill-opacity: 1; white-space: pre;">−2</text></g><g class="ytick"><text text-anchor="end" x="42.2" y="4.8999999999999995" transform="translate(0,119.42)" style="font-family: Arial; font-size: 14px; fill: rgb(0, 0, 0); fill-opacity: 1; white-space: pre;">0</text></g></g><g class="overaxes-below"/><g class="plot" transform="translate(52,60)" clip-path="url('#clip6ff61dxyplot')"><g class="scatterlayer mlayer"><g class="trace scatter traced1746e" style="stroke-miterlimit: 2; opacity: 1;"><g class="fills"/><g class="errorbars"/><g class="lines"><path class="js-line" d="M0,690L0,652.09L1.67,649.18L4.57,646.27L5.96,643.36L8.36,637.53L9.47,634.62L15.45,611.33L16.03,608.42L27.51,555.95L28.69,553.04L32.4,544.3L36.42,541.33L32.86,526.78L32.33,523.86L28.84,509.31L28.19,506.39L24.13,488.93L27.66,485.95L31.56,471.4L31.84,468.49L32.75,462.66L32.66,459.75L30.97,451.02L30.91,448.1L32.1,436.46L32.6,433.55L37.2,416.02L38.22,413.11L43.57,401.46L48.18,398.55L50,395.64L59.26,392.73L53.31,389.81L53.15,386.9L53.82,383.99L55.4,381.08L54.34,378.17L54.18,375.26L54.97,366.46L55.16,363.55L54.3,357.73L53.7,354.82L53.67,351.9L55.28,348.99L54.69,346.08L52.92,343.17L56.98,340.26L52.17,337.35L50.31,334.44L51.69,331.52L47.87,328.61L47.63,325.7L44.68,322.79L43.85,319.88L42.55,316.97L40.18,314L43.41,302.35L42.39,299.44L40.46,296.53L40.53,293.61L41.13,287.79L45.62,284.88L44.68,281.97L50.47,279.06L49.56,276.14L51.02,273.23L51.69,270.32L54.81,267.41L55.05,264.5L57.02,261.59L61.59,255.7L59.15,252.79L57.92,249.88L60.68,246.97L58.67,244.06L61.35,241.15L61.79,238.24L67.11,235.32L69.36,229.5L72.67,226.59L74.05,220.77L72.71,217.85L76.77,214.94L77.21,212.03L77.92,209.12L76.46,206.21L76.54,203.24L78.86,200.33L80.83,197.41L81.54,194.5L82.96,188.68L84.97,185.77L93.65,177.03L93.25,174.12L97.47,171.21L106.62,168.3L118.69,165.39L120.19,162.48L107.76,159.56L88.09,156.65L95.66,153.74L106.94,150.83L128.11,147.92L109.3,144.95L80.28,136.21L74.84,133.3L65.61,127.48L61.71,124.57L56.74,118.74L55.16,115.83L49.37,104.19L49.56,101.27L50.43,95.45L53.23,92.54L56.23,89.57L55.79,86.66L54.89,80.83L54.41,77.92L53.35,69.19L52.76,66.28L51.73,63.36L51.5,60.45L51.65,54.63L49.96,51.72L56.27,45.9L55.64,42.98L48.58,40.07L46.37,37.16L48.18,34.25L52.09,31.28L56.86,28.37L64.71,25.46L67.35,22.54L72.95,19.63L89.11,13.81L103.11,10.9L150.15,5.07L129.29,2.16L113.6,-0.75L102.24,-3.66L67.62,-15.31L69.4,-18.22L84.46,-21.13L84.93,-24.1L111.16,-27.01L130.2,-29.92L138.6,-32.84L115.97,-35.75L96.96,-38.66L92.31,-41.57L105.87,-47.39L117.19,-50.3L164.11,-56.13L197.27,-59.04L170.58,-61.95L174.76,-64.86L157.09,-67.77L171.21,-70.69L143.09,-73.6L145.11,-76.51L153.19,-82.39L154.85,-85.3L159.7,-88.21L124.48,-91.13L119.16,-94.04L108.36,-96.95L105.52,-99.86L95.78,-102.77L66.36,-111.51L61.51,-114.42L46.17,-120.24L36.84,-123.15L19.97,-128.98L16.82,-131.89L16.33,-134.8L4.84,-137.77L0.57,-143.59L0,-146.5L0,-184.35" style="vector-effect: non-scaling-stroke; fill: none; stroke: rgb(0, 0, 0); stroke-opacity: 1; stroke-width: 2px; opacity: 1;"/></g><g class="points"/><g class="text"/></g><g class="trace scatter trace08add0" style="stroke-miterlimit: 2; opacity: 1;"><g class="fills"/><g class="errorbars"/><g class="lines"><path class="js-line" d="M0,59.42L217,59.42" style="vector-effect: non-scaling-stroke; fill: none; stroke: rgb(0, 0, 0); stroke-opacity: 1; stroke-width: 2px; opacity: 1; stroke-dasharray: 9px, 9px;"/></g><g class="points"/><g class="text"/></g><g class="trace scatter tracec394f5" style="stroke-miterlimit: 2;"><g class="fills"><g><path class="js-fill" d="M0,-184.35L0,690L0,690L0.73,512.22L0.76,509.31L2.42,383.99L2.64,381.08L5.2,343.17L6.1,340.26L5.22,334.44L5.51,331.52L5.01,325.7L4.78,322.79L4.88,287.79L5.41,284.88L5.53,279.06L5.45,276.14L8,238.24L8.4,235.32L10.38,217.85L11.12,214.94L13.14,200.33L13.92,197.41L16.63,185.77L17.67,182.86L21.39,171.21L24.04,168.3L30.04,162.48L28.56,159.56L23.73,156.65L27.52,153.74L32.48,150.83L41.52,147.92L34.34,144.95L31.23,142.04L25.61,136.21L24.2,133.3L20.54,124.57L19.79,121.65L18.84,112.92L18.72,110.01L17.83,104.19L18.21,101.27L19.07,95.45L20.68,92.54L22.3,89.57L22.14,86.66L21.59,75.01L21.53,72.1L19.19,54.63L17.96,51.72L19.48,45.9L18.56,42.98L15.53,40.07L14.71,37.16L16.56,31.28L18.45,28.37L21.81,25.46L23.22,22.54L25.7,19.63L29.31,16.72L32.54,13.81L37.42,10.9L51.26,5.07L45.58,2.16L32.48,-9.48L28.69,-12.39L23.65,-15.31L25.09,-18.22L30.18,-21.13L33.15,-24.1L54.73,-29.92L60.25,-32.84L45.7,-38.66L45.11,-41.57L53.7,-47.39L60.53,-50.3L72.63,-53.22L88.05,-56.13L107.41,-59.04L93.96,-61.95L98.93,-64.86L94.75,-67.77L108.83,-70.69L89.98,-73.6L100.39,-85.3L104.81,-88.21L70.82,-91.13L63.13,-94.04L46.25,-99.86L41.17,-102.77L25.23,-111.51L22.46,-114.42L8.47,-131.89L8.24,-134.8L0.7,-140.68L0.23,-143.59L0,-178.53L0,-181.44L0,-184.35" style="fill: rgb(255, 0, 0); fill-opacity: 0.5; stroke-width: 0;"/></g></g><g class="errorbars"/><g class="lines"><path class="js-line" d="M0,690L0.73,512.22L0.76,509.31L2.42,383.99L2.64,381.08L5.2,343.17L6.1,340.26L5.22,334.44L5.51,331.52L5.01,325.7L4.78,322.79L4.88,287.79L5.41,284.88L5.53,279.06L5.45,276.14L8,238.24L8.4,235.32L10.38,217.85L11.12,214.94L13.14,200.33L13.92,197.41L16.63,185.77L17.67,182.86L21.39,171.21L24.04,168.3L30.04,162.48L28.56,159.56L23.73,156.65L27.52,153.74L32.48,150.83L41.52,147.92L34.34,144.95L31.23,142.04L25.61,136.21L24.2,133.3L20.54,124.57L19.79,121.65L18.84,112.92L18.72,110.01L17.83,104.19L18.21,101.27L19.07,95.45L20.68,92.54L22.3,89.57L22.14,86.66L21.59,75.01L21.53,72.1L19.19,54.63L17.96,51.72L19.48,45.9L18.56,42.98L15.53,40.07L14.71,37.16L16.56,31.28L18.45,28.37L21.81,25.46L23.22,22.54L25.7,19.63L29.31,16.72L32.54,13.81L37.42,10.9L51.26,5.07L45.58,2.16L32.48,-9.48L28.69,-12.39L23.65,-15.31L25.09,-18.22L30.18,-21.13L33.15,-24.1L54.73,-29.92L60.25,-32.84L45.7,-38.66L45.11,-41.57L53.7,-47.39L60.53,-50.3L72.63,-53.22L88.05,-56.13L107.41,-59.04L93.96,-61.95L98.93,-64.86L94.75,-67.77L108.83,-70.69L89.98,-73.6L100.39,-85.3L104.81,-88.21L70.82,-91.13L63.13,-94.04L46.25,-99.86L41.17,-102.77L25.23,-111.51L22.46,-114.42L8.47,-131.89L8.24,-134.8L0.7,-140.68L0.23,-143.59L0,-178.53L0,-181.44L0,-184.35" style="vector-effect: non-scaling-stroke; fill: none; stroke: rgb(255, 0, 0); stroke-opacity: 1; stroke-width: 2px; opacity: 1;"/></g><g class="points"/><g class="text"/></g></g></g><g class="overplot"/><path class="xlines-above"/><path class="ylines-above"/><g class="overlines-above"/><g class="xaxislayer-above"/><g class="yaxislayer-above"/><g class="overaxes-above"/></g></g><g class="polarlayer"/><g class="ternarylayer"/><g class="geolayer"/><g class="funnelarealayer"/><g class="pielayer"/><g class="treemaplayer"/><g class="sunburstlayer"/><g class="glimages"/><defs id="topdefs-6ff61d"><g class="clips"/><clipPath id="legend6ff61d"><rect width="115" height="53" x="0" y="0"/></clipPath></defs><g class="layer-above"><g class="imagelayer"/><g class="shapelayer"/></g><g class="infolayer"><g class="legend" pointer-events="all" transform="translate(273.34000000000003,60)"><rect class="bg" shape-rendering="crispEdges" style="stroke: rgb(68, 68, 68); stroke-opacity: 1; fill: rgb(255, 255, 255); fill-opacity: 1; stroke-width: 0px;" width="115" height="53" x="0" y="0"/><g class="scrollbox" transform="" clip-path="url('#legend6ff61d')"><g class="groups"><g class="traces" transform="translate(0,15.6)" style="opacity: 1;"><text class="legendtext" text-anchor="start" x="40" y="5.46" style="font-family: Arial; font-size: 14px; fill: rgb(0, 0, 0); fill-opacity: 1; white-space: pre;">Total DOS</text><g class="layers" style="opacity: 1;"><g class="legendfill"/><g class="legendlines"><path class="js-line" d="M5,0h30" style="fill: none; stroke: rgb(0, 0, 0); stroke-opacity: 1; stroke-width: 2px;"/></g><g class="legendsymbols"><g class="legendpoints"/></g></g><rect class="legendtoggle" x="0" y="-10.6" width="110" height="21.2" style="fill: rgb(0, 0, 0); fill-opacity: 0;"/></g><g class="traces" transform="translate(0,36.8)" style="opacity: 1;"><text class="legendtext" text-anchor="start" x="40" y="5.46" style="font-family: Arial; font-size: 14px; fill: rgb(0, 0, 0); fill-opacity: 1; white-space: pre;">Sc d</text><g class="layers"><g class="legendfill"><path class="js-fill" d="M5,-2h30v6h-30z" style="stroke-width: 0; fill: rgb(255, 0, 0); fill-opacity: 0.5;"/></g><g class="legendlines"><path class="js-line" d="M5,-2h30" style="fill: none; stroke: rgb(255, 0, 0); stroke-opacity: 1; stroke-width: 2px;"/></g><g class="legendsymbols"><g class="legendpoints"/></g></g><rect class="legendtoggle" x="0" y="-10.6" width="110" height="21.2" style="fill: rgb(0, 0, 0); fill-opacity: 0;"/></g></g></g><rect class="scrollbar" rx="20" ry="3" width="0" height="0" style="fill: rgb(128, 139, 164); fill-opacity: 1;" x="0" y="0"/></g><g class="g-gtitle"/><g class="g-xtitle"/><g class="g-ytitle"/></g></svg>